<svg xmlns:rdf="http://www.w3.org/1999/02/22-rdf-syntax-ns#" xmlns="http://www.w3.org/2000/svg" xmlns:osb="http://www.openswatchbook.org/uri/2009/osb" viewBox="0 0 288 288" version="1.1" xmlns:cc="http://creativecommons.org/ns#" xmlns:dc="http://purl.org/dc/elements/1.1/">
 <defs></defs>
 <g style="display:none">
  <path style="opacity:.99;stroke:#f30;stroke-miterlimit:10;stroke-width:1.236;display:inline;fill:none" d="m51.72 158.3c14.84-33.7 51.3-53.42 88.42-53.42 38.14 1.759 70.12 17.94 92.27 52.52"/>
 </g>
 <g>
  <circle style="color-rendering:auto;text-decoration-color:#000000;color:#000000;shape-rendering:auto;solid-color:#000000;text-decoration-line:none;mix-blend-mode:normal;opacity:.89;image-rendering:auto;white-space:normal;text-decoration-style:solid;isolation:auto" cx="144" class="wheel-bg" cy="142.8" r="128.6"/>
 </g>
 <g>
  <g>
   <path d="m137.6 262.1c.219 1.245 2.934 1.352 3.676.817.597-1.556-1.828-.08-1.227-1.633-.449-19.72 5.5-38.53 5.715-57.57-2.5 19.14-5.121 38.16-7.754 57.16-.637 1.454 1.383.247 1.223 1.227-.813.68-.52-.04-1.633 0"/>
   <path style="stroke-linejoin:round;stroke:#000;stroke-linecap:round;stroke-width:.12;fill:none" d="m148.6 213.1c-.172-.7-.317-1.407-.453-2.119"/>
   <path d="m149 214.7c2.328 8.964 3.519 19.07 6.531 27.36-2.211-9.087-3.637-18.96-6.531-27.36"/>
   <path d="m173.3 263.6c1.254-.309 2.5-.633 3.726-.977-.976.606-2.402.758-3.75.992h.02m-40.44 3.254c.973.02 2.004.03 3.067.04.429.02.855.06 1.289.08 10.84.539 20.96-.29 30.38-2.125-9.84 2.496-22.85 2.894-34.74 2m-107.2-127.7c25.37 1.496 49.73 7.012 75.12 9.796-19.78 8.368-40.3 18.5-61.24 26.13-2.738.996-5.391 2.55-8.164 2.449-2.125-1.367-2.617-4.903-3.266-7.757-.6875-3.012-.8711-6.508-1.633-9.391.4961-.777 5.586-.691 3.672-1.223 15.35-1.41 35.23-1.777 52.67-2.449-18.34-.812-39.63 2.008-56.75 1.223-.12-6.1-1.63-12.8-.41-18.8m2.039-20.82c25.09 2.672 51.71 6.612 77.57 9.8-24.27-5.261-53.55-5.508-76.75-11.84 1.031-6.73 3.195-12.32 5.309-17.96 16.05 4.534 32.06 9.726 46.95 14.29 3.02.926 6.566 1.294 9.391 2.86.4415.243.8984.528 1.359.828 4.988.336 10.96 3.106 16.2 4.48-5.64-2.952-12.14-4.241-18.37-6.125-17.83-5.4-37.53-10.7-54.31-17.97 1.46-6.42 4.91-10.87 7.75-15.92 17.25 8.89 29.76 22.49 45.32 33.09-7.61-7.5-18.35-14.72-27.76-22.07-4.37-3.42-7.6-6.92-11.43-10.2-1.058-.9102-3.898-2.941-4.898-2.043 1.75-3.91 4.555-7.953 8.164-12.25.5352-.6367 3.031-3.648 3.266-3.676 1.879-.2188 7.883 7.301 9.391 8.98 19.48 21.68 41.55 45.82 60.02 66.55-7.051 3.156-14.29 6.12-21.64 8.98 7.555-1.156 15.13-5.824 22.45-8.573 1.281 1.988 3.856 2.675 4.082 5.713-1.176-.96-3.601-1.584-2.449-3.674-1.926 1.761-2.062.41-3.672-.814-1.297 1.344 1.574.822 1.223 2.45-3.703 2.012-7.129 4.305-10.62 6.532 3.648-.743 7.812-4.414 11.43-6.532 1.547.914 3.422 2.71 4.492 2.856-1.004 2.129-2.023 4.238-3.265 6.125-33.25-4.852-67.55-9.071-100.4-15.11-2.199-5.624.9765-12.88 1.222-18.78m4.48-21.67c-.4806 5.375-3.746 11.5-5.309 17.15.6016-5.253 3.215-12.03 5.309-17.15m7.76-15.92c.4728-.066.7267.09.8164.4062-2.418 4.797-5.035 9.391-7.352 14.29-.2696-3.937 4.684-10.19 6.535-14.7m13.47-18.38c.6913-.1484.7695.3203.8164.8203-4.95 4.85-8.1 11.51-13.07 16.33 3.15-6.65 8.12-11.47 12.25-17.15m18.37-15.92c-5.26 5.36-10.98 10.26-16.74 15.11 4.72-5.9 9.96-11.28 16.74-15.11m0 2.449c-.094 2.289 3.453 5.711 5.308 6.125 15.53 17.95 31.64 35.31 47.77 52.67 1.445 6.312 2.207 13.31 4.492 18.78-.422-4.348-2.16-10.91-3.27-15.93 1.559-1.204 3.516 4.05 5.719 4.902.903 3.583-.43 9.411 1.223 12.25.933-2.711-.547-6.524 0-10.21 3.515 2.883 5.758 7.035 9.39 9.796.297 1.118-.812.824-.816 1.632 1.305.248 1.262-.764 2.043 0-.06-.94-.06-1.897 1.223-3.264 1.832.211 1.672 2.414 2.859 3.264-1.66 1.396-3.625.372-6.531.822-.574.144-.03.718.406.816-10.23-2.023-20.78-7.25-32.25-9.39-17.07-19.8-36.07-39.32-52.25-58.77 3.918-5.606 9.688-9.359 14.7-13.88.4609.078.2265.4101 0 .4062m15.92-13.47c.3633.1797.7305.3555.8164.8125-5.07 3.371-9.84 7.035-15.92 9.391 4.199-4.238 10.26-6.617 15.11-10.2m4.898 7.754c8.152 13.77 18.31 29.05 27.76 42.87.699 6.918 2.777 12.46 3.675 19.19.61 1.472-1.925-1.052-2.859-2.044-7.6-8.04-15.3-17.37-22.91-25.76-8.91-9.85-18.75-19.14-25.32-29.4 4.195-4.238 10.08-6.797 15.11-10.2 2 1 2.516 5.644 4.492 5.305m12.23-14.69c-.52 1.93-2.777 2.125-4.082 3.266 1.207.375 4.25-.9101 5.715-1.633 6.941 15.1 8.453 35.64 13.06 53.07-10-15.04-20.72-29.36-28.98-46.13 2.215-1.73 5.356-2.539 7.754-4.086-2.282-.094-5.594 2.297-8.574 2.859 3.234-4.25 9.723-5.25 15.11-7.348m26.94 86.14c-7.32-4.656-8.086-15.87-10.21-25.72 4.75 7.226 11.5 12.45 10.21 25.72m-4.898-91.04c-1.653 2.566-7.11 1.328-9.391 3.266 2.254.2031 6.211-1.406 9.797-1.227 1.141 1.172.773 3.856.816 6.125.364.25.731.4922.817 0 .597 21.73 1.383 46.79 2.449 69.41-4.269-4.711-7.019-10.95-11.02-15.93-2.5-17.48-8.036-36.8-10.61-54.3-.05-1.043-1.367-.8125-2.449-.8164.695-.9375 2.301-.9648 3.676-1.227-1-1.375-4.555 2.035-5.309-.4062 4.125-2.383 14.02-4.906 21.23-4.898m-12.25 0c-.965.8047-2.574.961-4.082 1.223.965-.8047 2.578-.9609 4.082-1.223m40.42-3.27c-10.34-.2031-26.24.1875-36.34 2.453 9.996-2.887 23.8-3.387 36.34-2.453m-2.856 2.043c6.656.418 13.01 1.137 18.37 2.859-4.691.4765-13.7-.098-18.37-2.859m35.93 10.61c-5.789 18.16-16.27 31.64-23.68 48.18.172-14.58 3.926-35.28 4.899-46.95 1.687-1.172 1.066-4.648 2.043-6.531 6.515.8281 11.55 3.141 16.74 5.305m-16.33-7.754c5.422 1.379 10.69 2.922 15.52 4.898-5.258.625-10.03-2.766-15.52-3.266zm36.34 15.1c-3.324 1.016-6.578-2.391-9.797-4.082-3.543-1.859-7.348-3.18-10.62-4.898 7.773.3945 13.82 6.055 20.41 8.98m16.74 15.52c-.183.5938-.359-.039-.82 0-8.649 9.898-16.67 20.79-24.9 31.44-8.16 10.55-16.48 21.06-23.68 31.44-5.824 2.206-11.24 4.817-17.15 6.938 2.164-6.864.368-13.32 2.45-20.41 1.14-3.876 9.109-12.5 11.84-15.92 12.28-15.41 24.75-30.55 36.34-45.73 5.918 3.473 10.68 8.102 15.93 12.25m1.633-.4062c-5.836-4.648-12.3-8.664-17.56-13.88 6.887 3.594 12.87 8.09 17.56 13.88m13.47 14.7c-4.321-4.531-8.719-8.98-12.66-13.88 4.622 2.594 9.235 8.727 12.66 13.88m9.796 15.1c-2.976-4.52-7.136-9.988-8.98-14.29 3.496 4.262 6.727 8.789 8.98 14.29m8.981 20.82c-2.828-6.7-5.676-13.38-8.57-20 3.832 5.688 6.504 12.54 8.57 20m0 1.222c3.047 5.527 3.934 13.22 4.898 20.82-1.398-5.542-2.668-14.75-4.898-20.82m-108.2 54.3c.07-1.158.747-1.7.817-2.856.535-1.138.43 3.156-.817 2.856m-49.75 95.36c6.329 2.308 13.09 4.27 20.35 5.888-.754-.606-1.937-.782-3.266-.817 1.77-1.996 2.348-1.652 4.899-1.227-.531-.964-2.207-.789-3.266-1.222 7.977-34.76 21.38-64.09 30.62-97.58-2.265 3.043-2.961 7.656-4.082 11.84-2.984-3.137-3.664-8.582-5.719-12.65-.128-1.629 1.891-1.109 2.043-2.449-1.937.246-3.332 3.184-4.488 2.856.391-1.922 2.738-1.887 3.672-3.266-1.148-.149-2.473.792-3.266-1.228-.937.352 1.196 2.126 0 2.86-1.742-.03-.953-2.585-1.632-3.676 2.421.438 4.125 1.591 6.941 1.634.309-.08.289-.282.137-.47-.18-.112-.364-.233-.547-.348.203.05.422.192.547.348 8.097 5.099 16.82 12.82 25.18 18.84-3.383-4.672-9.54-7.577-14.29-11.43-1.398-1.129-3.39-2.711-2.449-4.899 4.406 1.856 8.242 4.278 12.25 6.532.348.07.387-.16.41-.406-3.968-2.567-8.25-4.818-12.66-6.942.129-.957.645-1.532.406-2.86-1.761.02-1.421 2.388-3.265 1.227-.406.921 1.957.957.816 3.265-1.394-.648-2.718-1.362-3.265-2.858 4.82-.895 6.55-4.879 13.47-3.672 12.88 31.05 26.04 63.62 37.15 95.12-6.293 2.555-11.96 5.733-19.19 7.348.485-1.083.356-1.267 1.637-.817-8.672-20.34-18.36-42.82-27.36-64.1-1.171-2.769-3-5.964-3.265-7.757-1.09-7.259 3.211-13.63 2.043-20.82-1.356 5.453-1.953 11.66-2.449 17.96-1.532-.923-1.805-3.097-2.454-4.903-.984 2.36 1.317 4.942 2.043 6.942-.679 5.446-1.75 10.5-2.043 16.33-1.71-3.73-2.257-8.63-3.265-13.07-.535 3.73.992 8.406 2.043 13.07.844 3.754 1.98 7.684 2.812 11.36-1.465-7.711-.965-16.32.864-25.24 5.316 11.5 10.53 23.23 15.51 35.11 4.965 11.84 10.7 23.67 13.47 36.34-5.535 1.676-11.54 2.891-17.56 4.083-1.578-5.512-3.328-11.67-4.898-18.78.644 6.318 2.816 13.73 2.449 20.82 1.668.445 1.043-1.406 2.039-1.634 15.02.05 26.55-6.065 39.6-11.43-6.516 4.777-14.95 7.641-23.68 10.21 7.023-1.742 13.63-4.074 19.87-6.894-3.488 2.5-8.484 3.492-12.79 5.168.02-.07.06-.133.08-.204-.484.168-.969.336-1.453.5-3.934 2.04-11.83 4.102-18.4 4.512-2.129.344-4.274.632-6.438.864-5.602 1.288-14.38.984-19.27.492-.668-.04-1.336-.08-2.004-.129.04.02.08.04.114.06-6.242-.395-12.21-1.071-17.34-2.571-.754-.164-1.504-.34-2.254-.518v.218c-5.418-1.382-10.68-2.925-15.51-4.91.114 0 .223 0 .332-.02m-5.257-2.035c-2.02-.621-3.938-1.528-5.809-2.551 1.891.89 3.832 1.738 5.809 2.551m-46.76-38.6c-.2774-.192-.5468-.402-.8164-.628-.7812-1.076-1.535-2.172-2.277-3.274.9766 1.356 1.992 2.668 3.094 3.902m23.27 21.23c-3.445-2.645-8.047-4.996-6.125-7.759 11.99-12.1 26.87-24.84 40.01-37.15-2.84 7.427-7.152 15.04-11.02 22.86-3.793 7.672-8.453 15.03-11.02 22.45-.328-.214-.664-.425-1.226-.405-1.113 3.113-3.035 4.668-4.082 6.941-5.465-2.7-10.12-6.212-13.88-10.62 5.363 2.528 8.856 6.929 14.29 9.391-1.332-1.531-4.113-3.543-6.941-5.715m-10.46-5.887c.1133.09.2305.18.3439.27-.074-.04-.1524-.09-.2267-.134-.039-.05-.078-.09-.1172-.136m-5.461-5.544c-2.414-2.573-4.848-5.245-6.942-7.756.2735.171.5431.363.8126.558.7577.793 1.516 1.586 2.273 2.382-.4375-.534-.8593-1.077-1.285-1.616 4.242 3.484 8.34 9.288 12.89 12.96-.5587-.09-1.086-.273-1.59-.528-.8476-.808-1.688-1.624-2.512-2.456.3281.395.6718.778.9961 1.18-.3281-.188-.6563-.392-.9844-.613-1.285-1.275-2.457-2.829-3.664-4.115m-5.71-11.9c-.332.218-.664.429-1.227.41-3.738-4.969-6.844-10.58-10.21-15.92 22.18-14.29 44.61-28.34 66.55-42.87 6.524-.692 14.06-.371 20.41-1.227-3.082 6.715-6.945 12.65-9.797 19.6-22.03 12.91-43.86 27.85-65.73 39.6.4882.469.1562 1.035 0 .407m-11.25-11.2c2.402 3.558 5.305 7.554 7.176 11.06-2.656-2.852-5.035-6.98-7.176-11.06m-2.62-5.1c.074.115.1445.232.2188.344.082.188.1601.372.2421.556-.1563-.301-.3124-.602-.4609-.9m-7.16-16.93c1.348 3.195 2.699 6.386 4.059 9.57.4921 1.313 1.012 2.574 1.582 3.676.1249.293.2539.586.3788.882-2.406-2.722-3.98-8.921-5.812-13.42-.07-.239-.1407-.473-.2071-.711m110-19.5c3.265 6.394 8.242 14.07 3.676 21.64-1.536-6.43-5-15.04-3.676-21.64m2.859 23.68c-.242 4.904-3.867 11.51-5.719 17.15-4.746 14.44-9.105 28.24-13.88 42.46-.938 2.797-1.114 5.913-2.043 8.168 0 0-1.106.225-1.223.405-1.176 1.832-1.359 4.032-1.633 5.716-7.359-1.621-14.12-3.836-20.41-6.532.3472-1.196 1.027.532 2.038 0 7.86-24.53 15.31-49.46 22.86-74.3-9.527 23.4-14.27 51.59-24.9 73.89-1.985-.462-3.727-1.172-5.309-2.039 3.531 2.793 12.8 6.543 18.78 8.168 2.488.672 6.801-.148 7.347 3.261-15.21-3.288-28.11-8.901-38.78-16.74 1.18-.563 3.308.893 4.492 1.632-.1836-1.585-1.867-1.671-2.859-2.449 11.33-22.97 23.19-45.4 34.7-68.18-3.617 3.729-5.269 9.425-7.758 14.29-14.66 12.92-31.78 28.68-44.09 40.01.1405 1.085-2.066-1.269-2.856-2.043-3.207-3.136-7.223-7.524-9.797-11.02.7148-2.956 4.816-2.53 5.304-5.714 27.14-16.27 53.73-33.09 80.84-49.4.738 8.043 5.281 15.56 4.902 23.27m-8.2-53.5c-.566-.528-.406-1.773-.41-2.86 1.516.255 2.562.978 4.082 1.228-.676 1.551-1.914 2.152-3.672 1.632m8.57 21.64c-1.242 1.083-2.804-.988-4.082-1.225.774-.613 2.504 1.289 4.082 1.225m9.801-37.56c.5 2.245.43 8.164.406 12.25-.812.548-1.945.778-2.859 1.224.867 1.78 3.324-1.996 2.859.816 1.106-1.344 2.106-2.789 4.493-2.86v2.454c-.422.16-.821.293-1.203.414 1.832.308.3 3.355.386 4.484-1.074-1.105-2.777-1.578-2.859-3.676 1.035-.04 1.922-.23 2.43-.796-5.446 1.652-7.649-.813-9.778-5.325 1.446-3.589 4.289-5.785 6.125-8.984m-5.308-.816c1.632-3.072 3.609-6.489 4.898-8.981 2.734 9.109-2.996 12.28-6.125 17.55-3.43-2.116-.25-5.792 1.227-8.573m-3.676 7.347c1.051.04.586 1.594 1.633 1.637-.539 1.227-1.016 2.516-2.45 2.855-.179-.363-.355-.73-.816-.816.254-1.512 1.148-2.391 1.633-3.676m19.6-38.38c-1.516 5.645-7.813 11.6-9.391 17.56-1.363-24.3-4.438-52.69-2.039-76.75 5.836-.668 12.22 1.293 17.96 2.043-.914 8.809-2.59 20.12-4.082 32.66-1.047 8.801-.774 18.25-2.449 24.5m-5.309 42.05c-1.285.621-2.59 1.218-4.082 1.633.84-5.141-1.027-9.34-.406-12.25.832-3.926 4.82-5.086 6.121-8.985 1.195 5.028-1.403 13.28-1.633 19.6m87.71 82.46c1.48-3.091 3.555-6.423 5.477-9.907-1.676 3.399-3.5 6.704-5.477 9.907m2.367-3.435c1.938-3.78 3.965-7.48 5.863-11.3-1.355 3.824-3.613 7.652-5.863 11.3m-3.031 4.896c.03-.04.07-.09.105-.125-.06.101-.125.207-.187.309.03-.06.06-.122.08-.184m14.62-40.23c-1.75 6.418-2.637 13.69-6.531 17.96-20.84-9.328-43.32-23.48-65.32-34.29 22.99-1.948 51.58-4.381 74.71-3.264-.235 6.43-1.063 12.27-2.45 17.56-19.37-2.435-36.05-11.01-54.71-15.52 17.7 6.249 35.85 12.05 54.3 17.56m-101.7-20.41c.383 1.5.969 1.335 2.449 3.675.52-.09.535-1.219 0-1.223.613-1.23.731 1.399 1.637 1.223 1.18-.816-1.18-1.511-.82-2.855 4.625-.548 8.535-1.813 13.07-2.453-4.359-.543-9.703 1.457-13.88 2.453-.512-.633-.824-3.246-1.633-1.228-.902.192 1.348-3.018 0-2.038.08-1.703 3.551-3.523 4.903-5.312 6.797 3.273 13.19 6.953 20 10.21-9.446 1.712-21.07 1.255-31.44 2.04.305-.922 2.289-.16 3.266-.408 1.394-.784 1.906-2.448 2.449-4.084m.816-11.84c.301.382.743.62 1.227.82-3.344.703-2.246-5.617-1.633-8.574 3.695-.387 6.473-1.692 10.21-2.043-3.723 2.64-5.16 9.401-9.801 9.797m.817 2.452c1.789-.32 2.519 1.766 3.676.816-.661-.836-1.965-1.03-2.86-1.632 2.649-4.16 6.445-7.168 8.574-11.84 3.727-.628 7.293-1.417 10.62-2.445-4.735 7.433-14.23 13.6-20.7 20.68.524-.789.699-4.336.688-5.579m83.7 65.73c-22.71-10.52-46.28-23.66-69.41-35.11-3.379-5.598-6.867-11.09-10.61-16.33 1.652 4.878 6.21 10.39 9.39 15.1-6.703-.375-8.488-9.203-11.02-15.1 6.933-.962 17.5-.466 22.86-1.634 22.35 11.27 46.3 24.46 68.59 37.15-2.113 6.068-6.77 13.9-8.985 17.15-.347-1.399-2.527-.399-.816-1.223m-10.21 19.6c1.949-4.452 7.594-8.737 10.21-13.88-1.492 4.902-6.848 9.484-10.21 13.88m-30.69 25.19c-.625.407-1.235.828-1.833 1.266-.101-.05-.199-.106-.292-.164.714-.355 1.417-.73 2.125-1.102m-1.973-1.512c5.976-1.929 12.56-6.761 17.56-11.02-3.168 5-11.09 8.783-17.14 12.25-.191-1.144-1.941-2.82-.41-1.227m1.633-48.17c9.828 7.438 20.3 14.66 28.17 24.09-3.95 4.351-8.305 8.293-13.06 11.84-10.9-12.7-20.8-32.5-31.8-47.8 8.649 15.85 20.48 32.05 29.8 48.58.199.03.352 0 .477-.04.113-.125.23-.247.336-.371-.05.183-.164.308-.336.371-3.434 3.761-9.918 7.609-15.59 10.24-1.797-1.128-1.5-5.836-4.082-4.897-.719-5.595-3.688-10.66-5.715-15.92-6.086-15.81-12.35-32.4-18.37-48.58 9.914 7.565 20.2 14.88 30.21 22.46m-19.5-15.5c-2.207-1.082-7.426-6.16-11.43-8.164-1.086-3.273-2.715-5.996-3.675-9.39 1.812.51 4.074 2.718 5.308 2.449 3.492 4.808 6.629 9.972 9.797 15.1m48.99 37.15c-9.445-6.769-24.1-18.02-35.93-26.94-3.867-2.923-9.211-5.923-11.84-8.984-3.586-4.172-4.688-10.23-8.575-13.88 11.59 4.519 23.03 11.03 34.7 17.15 11.44 5.992 24 10.71 33.07 19.19-3.539 4.492-7 11.23-11.43 13.47m-11.43 15.11c2.113-3.875 8.246-7.266 11.43-11.43-1.742 4.243-7.734 7.778-11.43 11.43m39.5-58.4c.08.214.11.637.09.946-1.234 2.82-1.523 3.234-1.285 2.23.387-1.059.793-2.118 1.191-3.176m2.543-49.27c.528 5.731.981 11.54.817 17.96-2.844.156-1.325.433-3.266 1.226-23.68.215-49.2 1.91-72.67 3.676-3.539-1.769-7.078-3.54-10.61-5.309 9.094-4.015 16.61 2.477 25.31 3.676-11.41-4.179-23.7-7.476-35.37-11.39v.02c4.347 2.524 10.29 3.458 15.38 5.239-6.071 4.496-11.14-1.563-16.74-3.269.395-.672.856-1.326 1.356-1.97-.04-.03-.09-.05-.129-.07.05 0 .09.03.144.05 4.028-5.196 11.08-9.64 15.37-15.15 25.22-5.078 52.97-11.22 76.35-15.52 1.409 6.074 3.245 11.72 3.672 18.78-.251.06-.571-.08-.816 0-6.396 2.094-13.8 3.882-21.67 5.554 7.538-1.528 15.16-2.8 22.89-3.512m-86.56-10.21c6.175-2.81 13.4-4.564 18.78-8.168-5.84 2.19-11.54 4.518-17.15 6.941 15.35-19.76 30.58-43.18 48.99-61.24 4.707 3.734 8.035 8.84 12.25 13.07-17.64 18.56-37.3 35.1-55.52 53.07 17.28-14.97 33.38-31.13 50.22-46.54 3.086-.586 3.898-3.449 6.941-4.082 3.079 4.953 6.778 9.281 8.981 15.11-15.1 9.664-35.16 14.37-51.44 22.86 15.33-5.789 30.58-12.32 45.73-17.96 2.234-.832 4.848-1.672 6.531-3.676 3.063 5.105 5.008 11.33 7.352 17.15-2.004 3.13-5.57 1.543-7.352 3.672-30.63 5.978-62.11 13.28-91.45 19.19.418-3.36 4.238-4.196 6.941-5.304 2.852-1.168 5.958-2.16 8.571-3.266-1.106 2.16-2.926 3.602-4.082 5.714 2.664-1.417 3.961-4.202 5.715-6.53m-14.3-16.74c-1.231 2.989-5.165 6.809-7.348 10.2-3.297-11.66 5.023-16.31 8.168-25.72 1.183 4.48-1.789 12.6-.82 15.51m28.17-69.41c4.664 1.066 12.86 5.633 17.96 8.98-.726 3.086-2.945 4.68-3.676 7.758-13.75 17.01-27.7 35.98-41.64 51.44 1.258-5.972.08-11.36 1.633-17.15 1.074-4.012 4.812-8.274 6.941-12.25 6.75-12.62 13.02-25.2 20-37.56-.23-.586-.637-.9961-1.227-1.223m-60.42-9.797c5.246-2.273 16.98-1.836 22.45-1.226-1.297 2.281-4.164.6523-7.348 1.226 1.301.4766 4.293 1.402 5.715.4063 1.41.918-1.652.7578-.817 2.449 1.2 17.16 1.993 36.52 2.86 55.52.363 8.031 1.465 16.64.816 21.23-.918 6.464-7.715 11.47-8.574 17.15-4.391-5.138-7.457-11.6-11.43-17.15-.589-25.88-2.757-53.84-2.039-78.39 3.036-.09 5.602-.6562 8.981-.4062-2.137-1.812-6.867.7109-10.61-.8165m3.671 82.06c4.172 4.812 7.508 10.46 10.62 16.33-.649.852-1.332 1.664-1.633 2.859-3.246-2.742-5.844-6.136-8.574-9.39-.102-3.302.3-7.11-.411-9.802m10.21 27.76c.946-.913 3.844-.324 4.899 0-.988 1.172-3.914 1.032-4.899 0m.411 2.45c7.05-1.462 11.44 4.277 9.39 10.62-2.414 7.469-16.76 7.332-15.52-4.083.316-2.894 2.054-5.69 6.125-6.534m-11.84 12.66c.05 1.524-1.614 2.676-.817 3.676 1.114-.543 1.2-1.824.817-2.859 1.172 1.417 2.597 4.741 4.082 4.492.984 2.285 1.472 5.061 2.039 7.757-3.992.391-7.797 4.426-11.43 6.532.637-3.586 2.86-9.117 4.082-13.47h4.086c-1.625-1.793-4.558-.751-6.535-.407.125.556 1.023.336 1.633.407-1.278 4.711-3.223 8.753-4.082 13.88-2.375 1.434-4.762 2.858-6.942 4.492 2.047-8.438 8.297-16.2 11.84-24.5.535-.488.641-.156 1.227 0m-1.227-20.41c-1.234.616.34 1.788 0 2.855-4.183-.308-8.004-.976-11.84-1.632 3.008 1.893 8.301 1.5 12.25 2.449.36 1.547.305 3.508 1.223 4.492.84-.868-.687-2.828-.406-4.492 3.09 0 .828 3.936 2.039 4.082-1.918 1.21-4.516 1.746-6.531 2.858-5.864-4.885-10.32-11.18-15.92-16.33 7.308.45 14.6 4.454 22.05 6.126v2.86h-2.45c.754-.806.125-2.528-.41-3.266m0 14.29c-1.074-.968-2.461-1.62-2.855-3.265 1.551-.219 2.261-1.277 4.082-1.227-.278 1.492-1.274 2.266-2.449 2.86.269 1.223.871-.39 1.632 0 .05.731-.5.86-.41 1.632m-15.92 8.575c3.938-.679 8.711 1.348 12.66 2.039-2.68 2.352-7.411 1.364-11.43 1.633-8.008.543-19.28.909-27.76 1.633 4.383.3 11.34-.36 16.74-.406-20.6 13.83-41.93 26.94-62.87 40.42-.6913-1.06-1.898.788-3.266.406-2.676-5.078-4.602-10.91-6.941-16.33 22.56-11.33 47.71-20.06 70.63-31.03 4.086.136 7.235 1.203 11.43 1.225-2.231 1.31-4.492 2.587-6.531 4.083 3 .245 4.215-3.133 7.347-3.672m158.5-6.919c.144-9.358-.75-19.06-2.946-29.01-9.085-41.17-36.86-73.29-71.85-89-19.75-8.863-44.42-12.87-68.59-10.2-22.68 2.5-42.27 10.84-58.38 22.05-29.85 20.75-55.65 55.19-55.52 105.3.035 14.22 2.242 26.65 5.754 37.65 10.87 36.91 37.07 65.6 69.5 80.18 7.508 3.374 15.73 6.042 24.36 7.914.09 1.312 4.355 1.348 6.074 1.16 12.01 2.04 24.66 2.547 37.2 1.262 3.449-.08 7.281.218 9.395-1.203-.387.03-.797.07-1.231.101 19.64-3.308 36.8-11.01 51.18-20.99 29.86-20.73 55.69-55.16 55.59-105.3z"/>
  </g>
 </g>
 <g style="opacity:.99">
  <g id="wheel-banner" style="opacity:.99" transform="translate(-4.64)">
   <path d="m145.5 88.1c.102-1.566-3.508-.7773-4.082-.4101-.887.7851 2.984.2617 4.082.4101"/>
   <path style="fill:#211e1e" d="m14.12 160.8 34.28-7.305 16.86 26.97.1524.06c12.95-34.5 46.24-59.06 85.27-59.06 38.68 0 71.73 24.13 84.92 58.16l.126-.09 16.86-26.98 34.28 7.305v-.444c-21.3-54.5-74.2-93.09-136.2-93.09-62.33 0-115.5 38.99-136.5 93.89"/>
   <path style="fill:#d1b58a" class="wheel-ribbon" d="m10.41 157.1 34.28-7.305 16.86 26.97.1524.06c12.95-34.5 46.24-59.06 85.27-59.06 38.68 0 71.74 24.13 84.92 58.16l.125-.09 16.86-26.98 34.28 7.304v-.445c-21.3-54.5-74.3-93.1-136.2-93.1-62.34 0-115.5 39-136.6 93.9"/>
   <path style="stroke:#fff;stroke-miterlimit:10;stroke-width:1.236;fill:none" d="m45.97 146.8.9921 1.586 14.2 22.72c14.84-33.7 48.7-56.01 85.82-56.01 38.14 1.759 70.58 23.13 85.42 55.11l14.22-22.76.993-1.586 1.828.391 29.53 6.293c-10.6-24.8-27.9-46-50.2-61.51-24.1-16.76-52.4-25.62-81.8-25.62-29.62 0-58.05 8.953-82.22 25.89-22.42 15.71-39.69 37.16-50.17 62.24l29.55-6.301z"/>
  </g>
 </g>
 <g class="wheel-text--programs">
  <g>
   <g transform="matrix(.9997 -.02422 .02422 .9997 -1.131 4.21)">
    <path d="m40.88 125.6 18.53 13.54q.615.45 1.056.409.2499-.01.3779-.09.1122-.09.7193-.587.7267-.63 1.42-.123.41.299.3626.894-.03.438-.5369 1.131l-.3918.537-5.14 7.032-.2996.41q-.4149.568-.8504.733-.4398.139-.834-.15-.6465-.472-.3904-1.253.2069-.647.233-.749.022-.129-.051-.327-.1139-.374-.6658-.777l-15.78-11.5q-.5519-.404-.9424-.399-.2111 0-.3118.06-.1049.04-.6587.438-.666.48-1.312 0-.3942-.288-.3802-.738.01-.476.4246-1.044l.2997-.41 5.129-7.017zm14.26 8.364-1.687-1.233q.3379-.793.3604-1.188.034-.411-.1789-.881-.3729-.78-1.414-1.541l-5.046-3.688q-.7411-.542-1.184-.697-.4433-.154-.9849-.04-.7758.134-1.451.826l-1.703-1.244q2.374-3.249 4.119-4.344 2.012-1.264 4.239-1.232 2.27.04 4.446 1.629 2.428 1.774 3.19 3.976.7458 2.19.065 4.644-.5806 2.019-2.77 5.015z"/>
    <path d="m62.19 103.9 13.6 18.48q.4515.613.8843.707.2416.06.3864.03.1333-.05.8626-.344.8824-.383 1.392.309.301.409.077.962-.16.409-.8521.918l-.5348.394-7.016 5.163-.4089.301q-.5663.417-1.031.444-.461 0-.7504-.394-.4747-.644 0-1.312.3918-.555.4473-.644.06-.117.05-.328 0-.391-.4016-.941l-11.58-15.8q-.4052-.551-.7792-.664-.1985-.07-.3161-.03-.1133.01-.7598.22-.7797.258-1.254-.386-.2894-.394-.141-.818.1525-.452.7188-.869l.409-.301 7-5.151zm12.89 7.394q1.609-.845 2.577-1.145.9834-.311 1.948-.318 1.02.0010 1.864.423.8596.41 1.415 1.165l2.396 3.256q.3704.504.7008.26.1258-.09.1582-.213.037-.148.043-.468-.0004-.825.4086-1.126.2674-.196.7432-.11.4758.09.6842.369.3589.488.4079 1.543.053 1.028-.2337 2.088-.2629.994-.8559 1.77-.5814.791-1.604 1.544-2.076 1.528-4.109 1.205-2.044-.339-3.607-2.462l-1.945-2.643q-.6483-.881-.7682-1.011-.5417-.571-1.239-.761-.8614-.215-1.78.316l-1.239-1.684q.7568-.751.8871-1.331.1062-.515-.05-.958-.1405-.454-.6614-1.162l-3.068-4.169q-.7294-.991-1.482-1.189-.7364-.21-1.952.248l-1.285-1.746.409-.301q1.746-1.285 3.066-2.062 1.952-1.17 4.136-1.201 3.137-.054 5.128 2.652 1.632 2.218 1.29 4.652-.1421 1.026-.6507 1.983-.493.945-1.734 2.586z"/>
    <path d="m92.83 88.84q-.8066.6821-.9753 1.394-.1687.7116.247 1.807l6.194 16.33q.6096 1.607 1.297 2.098.5549.416 1.558.307l.762 2.009q-4.179 1.209-7.95-.473-4.905-2.192-7.309-8.528-1.206-3.178-1.244-6.088-.027-2.935 1.138-5.424.8865-1.903 2.242-3.232 1.355-1.329 3.293-2.168l.7482 1.972zm1.498-.5681-.7483-1.972q2.007-.6569 3.902-.5613 1.914.089 3.839.9248 5.104 2.221 7.557 8.685 2.404 6.337.187 11.23-1.7 3.778-5.655 5.634l-.762-2.009q.433-.29.627-.551.204-.287.299-.699.209-.935-.366-2.451l-6.18-16.32q-.37-.97-.91-1.41-.37-.30-.76-.41-.38-.10-1.02-.09z"/>
    <path d="m123.9 78.99.142 2.163q-1.688.5231-1.533 2.842l1.205 18.14q.06 1.053.399 1.599.285.451 1.124.728l.143 2.202q-.624.04-1.157-.01-.514-.06-1.391-.301-2.092-.565-3.844-1.896-1.752-1.333-2.958-3.269-1.865-3.028-2.149-7.315-.276-4.151.992-7.465 1.267-3.314 3.913-5.33 1.528-1.178 3.329-1.767.746-.2454 1.779-.314zm1.739 2.018-.14-2.105q3.195.082 5.3.8227.622.2327.954.2107.312-.021.458-.1675.165-.1676.627-.8833.318-.5105.845-.5454.545-.036.781.2614.252.2768.299.9783l.503 7.581q.1 1.481-.992 1.554-.546.036-.837-.238-.275-.2756-.565-1.117-.365-1.072-1.221-2.464-.857-1.411-1.614-2.202-.863-.9213-1.887-1.304-1.024-.4018-2.512-.3814zm10.25 21.17q-.728.83-1.979 1.736-1.233.884-2.351 1.427-1.026.48-2.296.819-1.25.338-2.224.401l-.142-2.202q.556-.174.816-.386.279-.215.451-.579.292-.626.228-1.561l-.377-5.691q-.04-.76-.365-1.072-.149-.1859-.287-.2158-.142-.049-.912-.1743-.952-.1718-1.009-1.029-.04-.5063.377-.8079.43-.3025 1.287-.3595l.644-.042 7.133-.4735q.876-.058 1.244.172.386.2091.426.8133.02.3705-.116.6339-.121.2428-.492.5416-.373.2987-.455.5391-.08.2401-.05.8634l.441 6.646z"/>
    <path d="m154.9 80.07-3.269 22.72q-.108.754.134 1.125.127.215.254.293.13.06.856.36.897.346.775 1.197-.07.502-.62.739-.4.179-1.251.06l-.657-.09-8.622-1.24-.503-.07q-.696-.1-1.046-.407-.329-.323-.259-.807.114-.792.923-.932.669-.121.771-.146.124-.04.265-.199.277-.276.374-.952l2.785-19.35q.1-.6766-.09-1.019-.09-.1907-.201-.246-.09-.072-.696-.3764-.737-.3626-.623-1.155.07-.4833.473-.6818.426-.215 1.122-.1148l.502.072 8.603 1.238zm3.999 14.31q1.739.5266 2.639.9915.919.4678 1.612 1.14.726.7161 1.031 1.609.325.8953.192 1.823l-.576 4.002q-.09.619.317.677.155.02.262-.04.13-.08.36-.303.578-.588 1.08-.516.329.05.608.443.278.395.228.743-.09.599-.791 1.386-.683.77-1.631 1.324-.885.524-1.852.661-.969.156-2.226-.02-2.552-.368-3.774-2.023-1.219-1.675-.843-4.285l.467-3.249q.156-1.083.162-1.259.01-.7872-.35-1.412-.463-.7573-1.49-1.024l.298-2.068q1.066 0 1.566-.3271.437-.2924.636-.7175.219-.4224.344-1.292l.737-5.123q.175-1.218-.222-1.887-.377-.6661-1.565-1.192l.309-2.146.503.072q2.146.3089 3.631.6805 2.212.5354 3.791 2.045 2.273 2.162 1.795 5.488-.392 2.726-2.344 4.221-.821.6317-1.854.9565-1.014.3277-3.05.6267z"/>
    <path d="m185.7 86.69 7.349 2.821-3.156 23.37q-.07.622-.06 1.129.03.41.512.845.397.383.502.654.106.27-.03.617-.364.948-1.786.402l-9.099-3.493q-.547-.21-.777-.591-.224-.4-.06-.837.14-.365.356-.491.216-.127.832-.204.434-.04.664-.205.23-.163.356-.491.119-.31.155-.568l.432-2.868-5.088-1.953 1.326-1.981 4.084 1.568 2.336-16.11 1.141-1.612zm-3.036 4.148-.519 4.131-7.749 10.54q-.341.455-.509.892-.441 1.149.445 2.054l.527.537q.496.504.251 1.143-.35.911-1.681.4l-4.631-1.778q-.675-.258-.971-.686-.271-.439-.08-.931.203-.529 1.138-.567.874-.04 1.318-.164.47-.133.973-.463.798-.552 1.602-1.666l9.888-13.44z"/>
    <path d="m223.6 108.1 6.994 5.128.425.312q1.181.866.581 1.685-.474.646-1.254.389-.647-.208-.776-.23-.102-.03-.3.05-.374.113-.778.665l-11.56 15.77q-.404.552-.4.942 0 .211.03.316.07.101.464.656.48.666 0 1.312-.601.819-1.782-.05l-.425-.312-7.01-5.139-.519-.381q-.694-.508-.906-.979-.184-.474.127-.9.508-.693 1.392-.312.729.293.863.343.145.03.359-.03.444-.11.894-.724l13.57-18.51zm-5.796-4.25-3.376 11.11 4.87-3.768-3.835 5.229-12.59 9.54-.835-.613 7.181-22.61q.355-1.144.239-1.714-.05-.354-.489-.819-.862-.9707-.308-1.727.3-.4095.746-.4221.472-.017 1.023.3874l7.372 5.404zm-11.42 2.765-1.818 5.981-3.476 4.741q-.532.724-.715 1.074-.168.361-.256.878-.178.935.151 1.709l.306.806q.332.801 0 1.242-.589.803-1.77-.06l-3.954-2.899q-1.181-.866-.604-1.654.185-.252.372-.308.214-.06.641-.02 2.441.337 4.15-1.994l6.964-9.498z"/>
    <path d="m243.7 128.7-1.724 1.439q-1.031-.717-1.984-.761-.925-.04-1.705.609-.749.626-.981 1.506-.217.868.04 2.208.18.918 1.058 3.95.542 1.838.675 2.973.161 1.138 0 2.386-.382 3.321-2.946 5.461-1.935 1.615-4.34 1.995-2.405.379-4.722-.537-1.23-.499-2.401-1.353-1.174-.827-1.95-1.757l1.709-1.426q1.404 1.041 2.434 1.148 1.058.109 2.018-.692 1.005-.838 1.018-2.376 0-1.013-.673-3.306-.729-2.52-.96-3.498-.218-.962-.279-1.98-.344-4.496 3-7.287 1.709-1.427 3.737-1.924 2.042-.509 3.978.01 2.694.728 4.994 3.21zm-.735 2.623 1.649-1.376q.691.949 1.062 1.759.386.798.89 2.438.13.4.293.595.237.285.545.257l.71-.03q.53-.04.818.309.338.405.188.835-.122.433-.752.959l-4.948 4.13q-.434.363-.932.346-.47-.01-.796-.405-.25-.3-.268-.717 0-.235.1-.463.118-.225.46-.638.597-.778 1.039-1.834.442-1.055.606-2.108.313-2.094-.661-4.054zm-19.48 12.93-1.709 1.427q-1.026-1.23-1.561-3.302-.208-.768-.308-1.04-.101-.273-.263-.468-.251-.3-.481-.362-.215-.08-.88-.08-.555 0-.818-.31-.701-.839.589-1.916l5.458-4.556q.419-.35.904-.348.501-.01.816.337.29.317.231.673-.03.357-.43.918-1.001 1.421-1.588 3.004-.574 1.599-.627 3.119-.07 1.561.667 2.903z"/>
   </g>
  </g>
  <g>
   <g style="fill:#fff" transform="matrix(.9997 -.02422 .02422 .9997 -2.731 2.61)">
    <path style="fill:#fff" d="m40.88 125.6 18.53 13.54q.615.45 1.056.409.2499-.01.3779-.09.1122-.09.7193-.587.7267-.63 1.42-.123.41.299.3626.894-.03.438-.5369 1.131l-.3918.537-5.14 7.032-.2996.41q-.4149.568-.8504.733-.4398.139-.834-.15-.6465-.472-.3904-1.253.2069-.647.233-.749.022-.129-.051-.327-.1139-.374-.6658-.777l-15.78-11.5q-.5519-.404-.9424-.399-.2111 0-.3118.06-.1049.04-.6587.438-.666.48-1.312 0-.3942-.288-.3802-.738.01-.476.4246-1.044l.2997-.41 5.129-7.017zm14.26 8.364-1.687-1.233q.3379-.793.3604-1.188.034-.411-.1789-.881-.3729-.78-1.414-1.541l-5.046-3.688q-.7411-.542-1.184-.697-.4433-.154-.9849-.04-.7758.134-1.451.826l-1.703-1.244q2.374-3.249 4.119-4.344 2.012-1.264 4.239-1.232 2.27.04 4.446 1.629 2.428 1.774 3.19 3.976.7458 2.19.065 4.644-.5806 2.019-2.77 5.015z"/>
    <path style="fill:#fff" d="m62.19 103.9 13.6 18.48q.4515.613.8843.707.2416.06.3864.03.1333-.05.8626-.344.8824-.383 1.392.309.301.409.077.962-.16.409-.8521.918l-.5348.394-7.016 5.163-.4089.301q-.5663.417-1.031.444-.461 0-.7504-.394-.4747-.644 0-1.312.3918-.555.4473-.644.06-.117.05-.328 0-.391-.4016-.941l-11.58-15.8q-.4052-.551-.7792-.664-.1985-.07-.3161-.03-.1133.01-.7598.22-.7797.258-1.254-.386-.2894-.394-.141-.818.1525-.452.7188-.869l.409-.301 7-5.151zm12.89 7.394q1.609-.845 2.577-1.145.9834-.311 1.948-.318 1.02.0010 1.864.423.8596.41 1.415 1.165l2.396 3.256q.3704.504.7008.26.1258-.09.1582-.213.037-.148.043-.468-.0004-.825.4086-1.126.2674-.196.7432-.11.4758.09.6842.369.3589.488.4079 1.543.053 1.028-.2337 2.088-.2629.994-.8559 1.77-.5814.791-1.604 1.544-2.076 1.528-4.109 1.205-2.044-.339-3.607-2.462l-1.945-2.643q-.6483-.881-.7682-1.011-.5417-.571-1.239-.761-.8614-.215-1.78.316l-1.239-1.684q.7568-.751.8871-1.331.1062-.515-.05-.958-.1405-.454-.6614-1.162l-3.068-4.169q-.7294-.991-1.482-1.189-.7364-.21-1.952.248l-1.285-1.746.409-.301q1.746-1.285 3.066-2.062 1.952-1.17 4.136-1.201 3.137-.054 5.128 2.652 1.632 2.218 1.29 4.652-.1421 1.026-.6507 1.983-.493.945-1.734 2.586z"/>
    <path style="fill:#fff" d="m92.83 88.84q-.8066.6821-.9753 1.394-.1687.7116.247 1.807l6.194 16.33q.6096 1.607 1.297 2.098.5549.416 1.558.307l.762 2.009q-4.179 1.209-7.95-.473-4.905-2.192-7.309-8.528-1.206-3.178-1.244-6.088-.027-2.935 1.138-5.424.8865-1.903 2.242-3.232 1.355-1.329 3.293-2.168l.7482 1.972zm1.498-.5681-.7483-1.972q2.007-.6569 3.902-.5613 1.914.089 3.839.9248 5.104 2.221 7.557 8.685 2.404 6.337.187 11.23-1.7 3.778-5.655 5.634l-.762-2.009q.433-.29.627-.551.204-.287.299-.699.209-.935-.366-2.451l-6.18-16.32q-.37-.97-.91-1.41-.37-.30-.76-.41-.38-.10-1.02-.09z"/>
    <path style="fill:#fff" d="m123.9 78.99.142 2.163q-1.688.5231-1.533 2.842l1.205 18.14q.06 1.053.399 1.599.285.451 1.124.728l.143 2.202q-.624.04-1.157-.01-.514-.06-1.391-.301-2.092-.565-3.844-1.896-1.752-1.333-2.958-3.269-1.865-3.028-2.149-7.315-.276-4.151.992-7.465 1.267-3.314 3.913-5.33 1.528-1.178 3.329-1.767.746-.2454 1.779-.314zm1.739 2.018-.14-2.105q3.195.082 5.3.8227.622.2327.954.2107.312-.021.458-.1675.165-.1676.627-.8833.318-.5105.845-.5454.545-.036.781.2614.252.2768.299.9783l.503 7.581q.1 1.481-.992 1.554-.546.036-.837-.238-.275-.2756-.565-1.117-.365-1.072-1.221-2.464-.857-1.411-1.614-2.202-.863-.9213-1.887-1.304-1.024-.4018-2.512-.3814zm10.25 21.17q-.728.83-1.979 1.736-1.233.884-2.351 1.427-1.026.48-2.296.819-1.25.338-2.224.401l-.142-2.202q.556-.174.816-.386.279-.215.451-.579.292-.626.228-1.561l-.377-5.691q-.04-.76-.365-1.072-.149-.1859-.287-.2158-.142-.049-.912-.1743-.952-.1718-1.009-1.029-.04-.5063.377-.8079.43-.3025 1.287-.3595l.644-.042 7.133-.4735q.876-.058 1.244.172.386.2091.426.8133.02.3705-.116.6339-.121.2428-.492.5416-.373.2987-.455.5391-.08.2401-.05.8634l.441 6.646z"/>
    <path style="fill:#fff" d="m154.9 80.07-3.269 22.72q-.108.754.134 1.125.127.215.254.293.13.06.856.36.897.346.775 1.197-.07.502-.62.739-.4.179-1.251.06l-.657-.09-8.622-1.24-.503-.07q-.696-.1-1.046-.407-.329-.323-.259-.807.114-.792.923-.932.669-.121.771-.146.124-.04.265-.199.277-.276.374-.952l2.785-19.35q.1-.6766-.09-1.019-.09-.1907-.201-.246-.09-.072-.696-.3764-.737-.3626-.623-1.155.07-.4833.473-.6818.426-.215 1.122-.1148l.502.072 8.603 1.238zm3.999 14.31q1.739.5266 2.639.9915.919.4678 1.612 1.14.726.7161 1.031 1.609.325.8953.192 1.823l-.576 4.002q-.09.619.317.677.155.02.262-.04.13-.08.36-.303.578-.588 1.08-.516.329.05.608.443.278.395.228.743-.09.599-.791 1.386-.683.77-1.631 1.324-.885.524-1.852.661-.969.156-2.226-.02-2.552-.368-3.774-2.023-1.219-1.675-.843-4.285l.467-3.249q.156-1.083.162-1.259.01-.7872-.35-1.412-.463-.7573-1.49-1.024l.298-2.068q1.066 0 1.566-.3271.437-.2924.636-.7175.219-.4224.344-1.292l.737-5.123q.175-1.218-.222-1.887-.377-.6661-1.565-1.192l.309-2.146.503.072q2.146.3089 3.631.6805 2.212.5354 3.791 2.045 2.273 2.162 1.795 5.488-.392 2.726-2.344 4.221-.821.6317-1.854.9565-1.014.3277-3.05.6267z"/>
    <path style="fill:#fff" d="m185.7 86.69 7.349 2.821-3.156 23.37q-.07.622-.06 1.129.03.41.512.845.397.383.502.654.106.27-.03.617-.364.948-1.786.402l-9.099-3.493q-.547-.21-.777-.591-.224-.4-.06-.837.14-.365.356-.491.216-.127.832-.204.434-.04.664-.205.23-.163.356-.491.119-.31.155-.568l.432-2.868-5.088-1.953 1.326-1.981 4.084 1.568 2.336-16.11 1.141-1.612zm-3.036 4.148-.519 4.131-7.749 10.54q-.341.455-.509.892-.441 1.149.445 2.054l.527.537q.496.504.251 1.143-.35.911-1.681.4l-4.631-1.778q-.675-.258-.971-.686-.271-.439-.08-.931.203-.529 1.138-.567.874-.04 1.318-.164.47-.133.973-.463.798-.552 1.602-1.666l9.888-13.44z"/>
    <path style="fill:#fff" d="m223.6 108.1 6.994 5.128.425.312q1.181.866.581 1.685-.474.646-1.254.389-.647-.208-.776-.23-.102-.03-.3.05-.374.113-.778.665l-11.56 15.77q-.404.552-.4.942 0 .211.03.316.07.101.464.656.48.666 0 1.312-.601.819-1.782-.05l-.425-.312-7.01-5.139-.519-.381q-.694-.508-.906-.979-.184-.474.127-.9.508-.693 1.392-.312.729.293.863.343.145.03.359-.03.444-.11.894-.724l13.57-18.51zm-5.796-4.25-3.376 11.11 4.87-3.768-3.835 5.229-12.59 9.54-.835-.613 7.181-22.61q.355-1.144.239-1.714-.05-.354-.489-.819-.862-.9707-.308-1.727.3-.4095.746-.4221.472-.017 1.023.3874l7.372 5.404zm-11.42 2.765-1.818 5.981-3.476 4.741q-.532.724-.715 1.074-.168.361-.256.878-.178.935.151 1.709l.306.806q.332.801 0 1.242-.589.803-1.77-.06l-3.954-2.899q-1.181-.866-.604-1.654.185-.252.372-.308.214-.06.641-.02 2.441.337 4.15-1.994l6.964-9.498z"/>
    <path style="fill:#fff" d="m243.7 128.7-1.724 1.439q-1.031-.717-1.984-.761-.925-.04-1.705.609-.749.626-.981 1.506-.217.868.04 2.208.18.918 1.058 3.95.542 1.838.675 2.973.161 1.138 0 2.386-.382 3.321-2.946 5.461-1.935 1.615-4.34 1.995-2.405.379-4.722-.537-1.23-.499-2.401-1.353-1.174-.827-1.95-1.757l1.709-1.426q1.404 1.041 2.434 1.148 1.058.109 2.018-.692 1.005-.838 1.018-2.376 0-1.013-.673-3.306-.729-2.52-.96-3.498-.218-.962-.279-1.98-.344-4.496 3-7.287 1.709-1.427 3.737-1.924 2.042-.509 3.978.01 2.694.728 4.994 3.21zm-.735 2.623 1.649-1.376q.691.949 1.062 1.759.386.798.89 2.438.13.4.293.595.237.285.545.257l.71-.03q.53-.04.818.309.338.405.188.835-.122.433-.752.959l-4.948 4.13q-.434.363-.932.346-.47-.01-.796-.405-.25-.3-.268-.717 0-.235.1-.463.118-.225.46-.638.597-.778 1.039-1.834.442-1.055.606-2.108.313-2.094-.661-4.054zm-19.48 12.93-1.709 1.427q-1.026-1.23-1.561-3.302-.208-.768-.308-1.04-.101-.273-.263-.468-.251-.3-.481-.362-.215-.08-.88-.08-.555 0-.818-.31-.701-.839.589-1.916l5.458-4.556q.419-.35.904-.348.501-.01.816.337.29.317.231.673-.03.357-.43.918-1.001 1.421-1.588 3.004-.574 1.599-.627 3.119-.07 1.561.667 2.903z"/>
   </g>
  </g>
 </g>
 <g class="wheel-text--volunteer">
  <g>
   <path style="color-rendering:auto;text-decoration-color:#000000;color:#98cc96;isolation:auto;mix-blend-mode:normal;shape-rendering:auto;solid-color:#000000;text-decoration-line:none;image-rendering:auto;white-space:normal;text-decoration-style:solid" d="m61.21 138.6 4.61 5.4-2.88 4.2-23.22-7.3q-.524-.167-.7462-.152-.2382 0-.5161.169-.561.374-.8485.416-.2875.04-.643-.201-.4848-.329-.4633-.952.02-.482.5469-1.257l4.882-7.192q.4607-.678.6576-.899.2078-.237.4144-.333.2228-.09.5097-.06t.4807.16q.5979.407.4726 1.147-.075.563.042.878.1114.289.5154.563.2586.175.4854.258l15.7 5.181zm-1.894-2.183-3.619-1.206-5.542-6.476q-.5257-.617-.6602-.732-.3335-.273-.9015-.376-.7411-.126-1.292.304l-.5559.401q-.6379.488-1.252.07-.4363-.296-.4212-.806 0-.519.4267-1.149l2.688-3.959q.5045-.744.8035-.872.5057-.223.9582.09.3071.208.397.458.1007.234.031.655l-.1716 1.088q-.1087.681.2894 1.66.3928.951 1.138 1.835l7.687 9.019z"/>
   <path style="color-rendering:auto;text-decoration-color:#000000;color:#98cc96;isolation:auto;mix-blend-mode:normal;shape-rendering:auto;solid-color:#000000;text-decoration-line:none;image-rendering:auto;white-space:normal;text-decoration-style:solid" d="m61.48 111.8q-.5285.915-.4468 1.642.082.726.8433 1.617l11.35 13.27q1.117 1.307 1.93 1.537.6629.204 1.57-.238l1.396 1.634q-3.524 2.55-7.642 2.242-5.357-.405-9.762-5.556-2.208-2.583-3.228-5.308-1.018-2.754-.7623-5.49.1911-2.092 1.017-3.8.8262-1.709 2.366-3.154l1.371 1.603zm1.217-1.04-1.371-1.603q1.667-1.297 3.483-1.848 1.831-.563 3.926-.427 5.554.365 10.05 5.62 4.404 5.151 3.972 10.51-.3228 4.13-3.417 7.213l-1.396-1.633q.3099-.418.4035-.73.096-.339.045-.758-.1192-.952-1.173-2.183l-11.35-13.27q-.6727-.787-1.334-1.018-.4447-.16-.8493-.123-.3899.02-.9895.256z"/>
   <path style="color-rendering:auto;text-decoration-color:#000000;color:#98cc96;isolation:auto;mix-blend-mode:normal;shape-rendering:auto;solid-color:#000000;text-decoration-line:none;image-rendering:auto;white-space:normal;text-decoration-style:solid" d="m97.85 117.5-7.708 4.015-.4504.234q-.6236.326-1.087.281-.4555-.08-.681-.504-.3699-.71.2058-1.297.4723-.488.5409-.568.076-.106.1-.316.063-.385-.2523-.992l-9.032-17.34q-.3158-.606-.668-.775-.1852-.101-.3071-.08-.1137-.01-.7845.101-.8102.136-1.18-.5742-.2256-.433-.014-.8296.2201-.423.8437-.7477l.4504-.2347 7.726-4.024.5889-.3069q.7622-.3969 1.2-.3605.5947.043.8292.493.3971.7622-.3352 1.386-.5943.5078-.6885.6229-.094.1152-.1516.3432-.097.4472.2454 1.105l10.61 20.39zm1.403-.731-1.01-1.94q.7676-.598 1.153-1.041.4032-.453.6639-1.051.43-.95.513-2.271.08-1.32-.177-2.748-.219-1.098-.147-1.509.08-.438.53-.673.484-.253.917.03.204.136.501.708l3.673 7.051-6.617 3.446z"/>
   <path style="color-rendering:auto;text-decoration-color:#000000;color:#98cc96;isolation:auto;mix-blend-mode:normal;shape-rendering:auto;solid-color:#000000;text-decoration-line:none;image-rendering:auto;white-space:normal;text-decoration-style:solid" d="m105.5 105.2-3.9-14.78q-.177-.6603-.484-.9016-.158-.1395-.282-.1468-.11-.032-.788-.072-.8201-.043-1.022-.7979-.1313-.4905.1615-.8317.3065-.3652.9857-.5471l.49-.1314 8.415-2.253.49-.1314.7-.1059q.346.01.619.1981.273.1897.364.5293.202.7547-.487 1.202-.567.3742-.665.4611-.09.063-.151.2631-.147.3625.03 1.023l4.238 15.83q.43 1.604.677 2.225.261.598.661 1.036.373.406.73.533t1.277.164l.661 2.471-.414.114q-2.453.657-4.192.657-2.042 0-3.743-.614-1.702-.616-2.639-1.7-.995-1.149-1.672-3.677zm14.4 4.758-.661-2.471q1.82-.751 2.736-2.391 1.034-1.875.287-4.667l-3.294-12.3q-.692-2.585-2.946-3.073-.665-.1453-.91-.3023-.231-.1809-.341-.596-.131-.4905.171-.794.303-.3036 1.114-.5208l4.622-1.238q.586-.1566.784-.1694.213-.037.431.026.567.1517.699.6421.113.415-.116.779-.07.1194-.675.7266-.708.6751-.927 1.745-.225 1.051.09 2.239l3.299 12.32q.849 3.169 0 5.58-.615 1.782-2.278 3.199-.822.705-2.088 1.267z"/>
   <path style="color-rendering:auto;text-decoration-color:#000000;color:#98cc96;isolation:auto;mix-blend-mode:normal;shape-rendering:auto;solid-color:#000000;text-decoration-line:none;image-rendering:auto;white-space:normal;text-decoration-style:solid" d="m141.6 79.9 10.5 17.98.05 8.612-5.331.03-13.4-22.77q-.434-.7395-.71-1.031-.275-.2913-.705-.4253l-.744-.2689q-.294-.096-.471-.3486-.177-.2528-.18-.5653-.01-.3318.173-.6066.173-.294.465-.413.332-.1388 1.796-.1478l8.555-.053zm-8.14 6.906 2.091 3.425.06 10.47q0 1.367.464 2.244.474.876 1.473 1.436l.589.328q.509.29.512.876 0 .449-.365.745-.312.256-1.289.262l-4.511.03q-1.778 0-1.784-1.004 0-.352.173-.548.193-.216.817-.572 1.868-1.046 1.851-3.781l-.08-13.91zm18.62 7.951-2.092-3.483-.03-5.41q0-1.64-.504-2.497-.474-.876-1.69-1.494-.41-.1928-.568-.4066-.157-.2334-.16-.585 0-.5272.327-.7637.349-.2561 1.113-.2608l4.882-.03q.994-.01 1.31.3044.334.3105.336.7402 0 .4101-.19.6262-.175.1963-.876.5522-1.032.5339-1.552 1.631-.366.8031-.359 2.17l.06 8.906z"/>
   <path style="color-rendering:auto;text-decoration-color:#000000;color:#98cc96;isolation:auto;mix-blend-mode:normal;shape-rendering:auto;solid-color:#000000;text-decoration-line:none;image-rendering:auto;white-space:normal;text-decoration-style:solid" d="m175.4 83.59-4.63 22.48q-.154.746.07 1.13.113.223.235.308.126.07.833.411.873.399.701 1.241-.102.497-.664.701-.409.155-1.27-.02l-.631-.129-8.531-1.758-.632-.13q-.842-.173-1.23-.513-.366-.354-.26-.871.173-.842 1.134-.863.787-.04.928-.05.146-.03.319-.192.355-.267.508-1.012l4.631-22.48 8.493 1.75zm6.618 1.364-1.611 7.824q-.114.5549-.511.8322-.377.2812-.874.1788-.478-.099-.74-.4716-.239-.3883-.221-.9627l.05-1.206q.08-1.838-.475-3.308-.349-.9098-1.123-1.608l.477-2.315 5.03 1.036zm-21.69-4.469 5.031 1.036-.477 2.315q-1.005.3313-1.668 1.032-1.091 1.131-1.744 2.851l-.432 1.127q-.21.535-.602.7933-.369.243-.848.1445-.497-.1025-.751-.5138-.235-.4074-.121-.9622l1.612-7.824z"/>
   <path style="color-rendering:auto;text-decoration-color:#000000;color:#98cc96;isolation:auto;mix-blend-mode:normal;shape-rendering:auto;solid-color:#000000;text-decoration-line:none;image-rendering:auto;white-space:normal;text-decoration-style:solid" d="m197.7 91.53-10.4 24.55-8.002-3.392-.468-.198q-.647-.275-.908-.661-.235-.396-.05-.846.312-.737 1.131-.666.677.06.782.05.131 0 .307-.125.339-.196.604-.825l7.631-18q.266-.6294.173-1.009-.04-.2076-.132-.2893-.06-.092-.577-.5413-.62-.5387-.308-1.276.19-.4496.632-.5385.465-.099 1.113.1751l.468.1982 8.001 3.392zm1.601.6784 7.247 3.072-2.699 6.366q-.236.558-.559.718-.321.16-.789-.03-.396-.168-.507-.405-.111-.239-.06-.811.2-2.376-.665-4.036-.848-1.653-2.86-2.761l.891-2.104zm-5.639 13.05.884-2.086q1.257-.06 2.012-.441.755-.38 1.408-1.271.433-.622.773-.775.349-.17.78.02.576.243.601.785.03.287-.324 1.114l-2.903 6.852q-.359.845-.694 1.085-.317.247-.821.03-.414-.176-.54-.527-.128-.35-.02-1.005.22-1.37-.07-2.278-.275-.903-1.083-1.499zm-4.747 11.5.823-1.942q1.246.316 2.138.313.91 0 1.965-.334 1.056-.337 1.802-.848.773-.522 1.682-1.515.442-.492.741-.597.308-.126.685.04.503.213.572.603.07.372-.237 1.109l-2.691 6.348-7.48-3.172z"/>
   <path style="color-rendering:auto;text-decoration-color:#000000;color:#98cc96;isolation:auto;mix-blend-mode:normal;shape-rendering:auto;solid-color:#000000;text-decoration-line:none;image-rendering:auto;white-space:normal;text-decoration-style:solid" d="m222 104.6-15.29 21.84-7.121-4.983-.416-.292q-.576-.403-.75-.835-.148-.437.132-.836.459-.657 1.246-.416.65.192.753.217.13.02.326-.06.371-.122.763-.682l11.21-16.02q.391-.56.379-.95 0-.211-.07-.311-.04-.103-.451-.649-.494-.656-.04-1.311.28-.4002.731-.3955.476.0005 1.052.4032l.416.2906 7.121 4.983zm1.424.997 6.449 4.513-3.965 5.664q-.347.497-.695.586-.349.09-.765-.202-.352-.245-.412-.502-.06-.256.111-.805.691-2.281.19-4.086-.485-1.794-2.223-3.296l1.31-1.872zm-8.232 11.59 1.299-1.856q1.241.202 2.058-.02.819-.214 1.642-.95.554-.518.919-.596.375-.09.76.174.512.359.424.893-.03.286-.549 1.022l-4.266 6.097q-.527.753-.905.917-.361.176-.808-.137-.369-.257-.42-.627-.05-.37.19-.988.501-1.294.403-2.245-.08-.939-.747-1.691zm-7.037 10.26 1.209-1.728q1.152.567 2.025.75.89.193 1.993.08 1.102-.116 1.939-.455.863-.349 1.959-1.132.535-.388.851-.43.326-.06.662.178.447.313.433.708 0 .379-.462 1.036l-3.952 5.648-6.657-4.658z"/>
   <path style="color-rendering:auto;text-decoration-color:#000000;color:#98cc96;isolation:auto;mix-blend-mode:normal;shape-rendering:auto;solid-color:#000000;text-decoration-line:none;image-rendering:auto;white-space:normal;text-decoration-style:solid" d="m243.1 123.1-16.9 15.52q-.561.515-.608.956-.04.247 0 .388.06.127.435.82.476.836-.157 1.417-.375.343-.947.18-.424-.114-1.005-.748l-.45-.488-5.89-6.417-.344-.374q-.476-.518-.554-.978-.04-.458.311-.788.589-.542 1.305-.133.595.33.688.375.123.05.332.02.39-.04.892-.5l14.4-13.22q.506-.462.576-.847.05-.204 0-.318-.02-.111-.3-.731-.341-.748.248-1.289.359-.33.799-.228.464.102.94.62l.344.374 5.877 6.402zm-5.957 13.61q1.014 1.508 1.416 2.438.416.944.528 1.902.113 1.014-.219 1.898-.315.899-1.006 1.534l-2.978 2.734q-.46.423-.183.725.105.115.229.134.152.03.47-.01.82-.09 1.163.285.225.243.191.726-.04.482-.294.72-.446.41-1.49.573-1.016.164-2.1-.01-1.017-.153-1.852-.658-.851-.493-1.709-1.428-1.744-1.899-1.642-3.955.116-2.068 2.057-3.851l2.418-2.219q.805-.74.921-.874.51-.6.623-1.314.121-.879-.507-1.735l1.54-1.414q.828.671 1.42.738.523.05.946-.153.437-.189 1.084-.783l3.813-3.501q.906-.833 1.022-1.602.128-.755-.458-1.913l1.597-1.466.344.374q1.466 1.597 2.381 2.825 1.374 1.814 1.641 3.982.393 3.113-2.082 5.385-2.028 1.862-4.485 1.786-1.035-.03-2.041-.433-.993-.389-2.759-1.445z"/>
  </g>
  <g>
   <path d="m59.61 137 4.614 5.375-2.885 4.249-23.22-7.356q-.524-.167-.7462-.152-.2382 0-.5161.169-.561.374-.8485.416-.2875.04-.643-.201-.4848-.329-.4633-.952.02-.482.5469-1.257l4.882-7.192q.4607-.678.6576-.899.2078-.237.4144-.333.2228-.09.5097-.06t.4807.16q.5979.407.4726 1.147-.075.563.042.878.1114.289.5154.563.2586.175.4854.258l15.7 5.181zm-1.894-2.183-3.619-1.206-5.542-6.476q-.5257-.617-.6602-.732-.3335-.273-.9015-.376-.7411-.126-1.292.304l-.5559.401q-.6379.488-1.252.07-.4363-.296-.4212-.806 0-.519.4267-1.149l2.688-3.959q.5045-.744.8035-.872.5057-.223.9582.09.3071.208.397.458.1007.234.031.655l-.1716 1.088q-.1087.681.2894 1.66.3929.951 1.138 1.835l7.687 9.019z" style="color-rendering:auto;text-decoration-color:#000000;color:#98cc96;isolation:auto;mix-blend-mode:normal;shape-rendering:auto;solid-color:#000000;text-decoration-line:none;image-rendering:auto;white-space:normal;text-decoration-style:solid;fill:#fff"/>
   <path d="m59.88 110.2q-.5285.915-.4468 1.642.082.726.8433 1.617l11.35 13.27q1.117 1.307 1.93 1.537.6629.204 1.57-.238l1.396 1.634q-3.524 2.55-7.642 2.242-5.357-.405-9.762-5.556-2.208-2.583-3.228-5.308-1.018-2.754-.7623-5.49.1911-2.092 1.017-3.8.8262-1.709 2.366-3.154l1.371 1.603zm1.217-1.04-1.371-1.603q1.667-1.297 3.483-1.848 1.831-.563 3.926-.427 5.554.365 10.05 5.62 4.404 5.151 3.972 10.51-.3228 4.13-3.417 7.213l-1.396-1.633q.3099-.418.4035-.73.096-.339.045-.758-.1192-.952-1.173-2.183l-11.35-13.4q-.6727-.787-1.333-1.018-.4447-.16-.8494-.123-.3898.02-.9895.256z" style="color-rendering:auto;text-decoration-color:#000000;color:#98cc96;isolation:auto;mix-blend-mode:normal;shape-rendering:auto;solid-color:#000000;text-decoration-line:none;image-rendering:auto;white-space:normal;text-decoration-style:solid;fill:#fff"/>
   <path d="m96.25 115.9-7.708 4.015-.4504.234q-.6236.326-1.087.281-.4555-.08-.681-.504-.3699-.71.2058-1.297.4723-.488.5409-.568.076-.106.1-.316.063-.385-.2523-.992l-9.04-17.29q-.3158-.6063-.668-.7751-.1852-.1018-.3071-.082-.1137-.01-.7845.1007-.8102.1357-1.18-.5746-.2256-.433-.014-.8296.2201-.423.8437-.7477l.4504-.2347 7.726-4.024.5889-.3069q.7622-.3969 1.2-.3605.5947.043.8292.493.3971.7622-.3352 1.386-.5943.5078-.6885.6229-.094.1152-.1516.3432-.097.4472.2454 1.105l10.61 20.38zm1.403-.731-1.01-1.94q.7676-.598 1.153-1.041.4032-.453.664-1.051.4299-.95.5129-2.271.083-1.32-.177-2.748-.2191-1.098-.1474-1.509.08-.438.5305-.673.4844-.253.9169.03.204.136.501.708l3.673 7.051-6.617 3.446z" style="color-rendering:auto;text-decoration-color:#000000;color:#98cc96;isolation:auto;mix-blend-mode:normal;shape-rendering:auto;solid-color:#000000;text-decoration-line:none;image-rendering:auto;white-space:normal;text-decoration-style:solid;fill:#fff"/>
   <path d="m103.9 103.6-3.94-14.78q-.1767-.6603-.4838-.9016-.1586-.1395-.2819-.1468-.1101-.032-.7881-.072-.8203-.043-1.022-.7979-.1313-.4905.1615-.8317.3065-.3652.9857-.5471l.4904-.1314 8.415-2.253.49-.1314.7-.1059q.346.01.619.1981.273.1897.364.5293.202.7547-.487 1.202-.567.3742-.665.4611-.09.063-.151.2631-.147.3625.03 1.023l4.238 15.83q.43 1.604.677 2.225.261.598.661 1.036.373.406.73.533t1.277.164l.661 2.471-.414.114q-2.453.657-4.192.657-2.042 0-3.743-.614-1.702-.616-2.639-1.7-.995-1.149-1.672-3.677zm14.4 4.758-.661-2.471q1.82-.751 2.736-2.391 1.034-1.875.287-4.667l-3.294-12.3q-.692-2.585-2.946-3.073-.665-.1453-.91-.3023-.231-.1809-.341-.596-.131-.4905.171-.794.303-.3036 1.114-.5208l4.622-1.238q.586-.1566.784-.1694.213-.037.431.026.567.1517.699.6421.113.415-.116.779-.07.1194-.675.7266-.708.6751-.927 1.745-.225 1.051.09 2.239l3.299 12.32q.849 3.169 0 5.58-.615 1.782-2.277 3.199-.823.705-2.088 1.267z" style="color-rendering:auto;text-decoration-color:#000000;color:#98cc96;isolation:auto;mix-blend-mode:normal;shape-rendering:auto;solid-color:#000000;text-decoration-line:none;image-rendering:auto;white-space:normal;text-decoration-style:solid;fill:#fff"/>
   <path d="m140 78.3 10.5 17.98.05 8.612-5.331.03-13.4-22.77q-.434-.7395-.71-1.031-.275-.2913-.705-.4253l-.744-.2689q-.294-.096-.471-.3486-.177-.2528-.18-.5653-.01-.3318.173-.6066.173-.294.465-.413.332-.1388 1.796-.1478l8.555-.053zm-8.14 6.906 2.091 3.425.06 10.47q0 1.367.464 2.244.474.876 1.473 1.436l.589.328q.509.29.512.876 0 .449-.365.745-.312.256-1.289.262l-4.511.03q-1.778 0-1.784-1.004 0-.352.173-.548.193-.216.817-.572 1.868-1.046 1.851-3.781l-.08-13.91zm18.62 7.951-2.092-3.483-.03-5.41q-.01-1.64-.504-2.497-.474-.876-1.689-1.494-.411-.1928-.569-.4066-.157-.2334-.16-.585 0-.5272.327-.7637.35-.2561 1.113-.2608l4.882-.03q.995-.01 1.311.3044.333.3105.336.7402 0 .4101-.191.6262-.175.1963-.876.5522-1.032.5339-1.552 1.631-.366.8031-.359 2.17l.06 8.906z" style="color-rendering:auto;text-decoration-color:#000000;color:#98cc96;isolation:auto;mix-blend-mode:normal;shape-rendering:auto;solid-color:#000000;text-decoration-line:none;image-rendering:auto;white-space:normal;text-decoration-style:solid;fill:#fff"/>
   <path d="m173.8 81.99-4.63 22.48q-.154.746.07 1.13.113.223.235.308.126.07.833.411.874.399.702 1.241-.103.497-.664.701-.41.155-1.271-.02l-.631-.129-8.531-1.758-.632-.13q-.842-.173-1.23-.513-.366-.354-.26-.871.173-.842 1.135-.863.786-.04.927-.05.146-.03.319-.192.355-.267.508-1.012l4.631-22.48 8.493 1.75zm6.618 1.364-1.611 7.824q-.114.5549-.511.8322-.377.2812-.874.1788-.478-.099-.74-.4716-.239-.3883-.221-.9627l.05-1.206q.08-1.838-.475-3.308-.351-.9098-1.125-1.608l.477-2.315 5.03 1.036zm-21.69-4.469 5.031 1.036-.477 2.315q-1.005.3313-1.668 1.032-1.091 1.131-1.744 2.851l-.432 1.127q-.21.535-.602.7933-.369.243-.848.1445-.497-.1025-.751-.5138-.235-.4074-.121-.9622l1.612-7.824z" style="color-rendering:auto;text-decoration-color:#000000;color:#98cc96;isolation:auto;mix-blend-mode:normal;shape-rendering:auto;solid-color:#000000;text-decoration-line:none;image-rendering:auto;white-space:normal;text-decoration-style:solid;fill:#fff"/>
   <path d="m196.1 89.93-10.4 24.55-8.002-3.392-.468-.198q-.647-.275-.908-.661-.235-.396-.05-.846.312-.737 1.13-.666.678.06.783.05.131 0 .307-.125.338-.196.604-.825l7.63-18q.267-.6294.173-1.009-.04-.2076-.132-.2893-.06-.092-.577-.5413-.62-.5387-.308-1.276.191-.4496.632-.5385.466-.099 1.113.1751l.468.1982 8.002 3.392zm1.601.6784 7.247 3.072-2.699 6.366q-.236.558-.559.718-.321.16-.789-.03-.396-.168-.507-.405-.111-.239-.06-.8111.2-2.376-.665-4.037-.848-1.653-2.86-2.761l.891-2.104zm-5.639 13.05.884-2.086q1.257-.06 2.012-.441.755-.38 1.408-1.271.433-.6215.773-.7747.349-.1705.78.015.576.2433.601.7848.03.287-.324 1.114l-2.903 6.852q-.359.845-.694 1.085-.317.247-.821.03-.414-.176-.54-.527-.128-.35-.02-1.005.22-1.37-.07-2.278-.275-.903-1.083-1.499zm-4.747 11.5.823-1.942q1.246.316 2.138.313.91 0 1.965-.334 1.056-.337 1.802-.848.773-.522 1.682-1.515.442-.492.741-.597.308-.126.685.04.503.213.572.603.07.372-.237 1.109l-2.691 6.348-7.48-3.172z" style="color-rendering:auto;text-decoration-color:#000000;color:#98cc96;isolation:auto;mix-blend-mode:normal;shape-rendering:auto;solid-color:#000000;text-decoration-line:none;image-rendering:auto;white-space:normal;text-decoration-style:solid;fill:#fff"/>
   <path d="m220.4 103-15.29 21.84-7.121-4.983-.416-.292q-.576-.403-.75-.835-.148-.437.132-.836.459-.657 1.246-.416.65.192.753.217.13.02.326-.06.371-.122.763-.682l11.21-16.02q.391-.56.379-.95 0-.2111-.07-.3108-.04-.1036-.451-.6496-.495-.6551-.04-1.311.28-.4002.731-.3955.476.0005 1.052.4032l.416.2906 7.121 4.983zm1.424.997 6.449 4.513-3.965 5.664q-.347.497-.695.586-.349.09-.765-.202-.352-.245-.412-.502-.06-.256.111-.805.691-2.281.19-4.086-.485-1.794-2.223-3.296l1.31-1.872zm-8.232 11.59 1.299-1.856q1.241.202 2.058-.02.819-.214 1.642-.95.554-.518.919-.596.375-.09.76.174.512.359.424.893-.03.286-.549 1.022l-4.266 6.097q-.527.753-.905.917-.361.176-.808-.137-.369-.257-.42-.627-.05-.37.19-.988.501-1.294.403-2.245-.08-.939-.747-1.691zm-7.037 10.26 1.209-1.728q1.152.567 2.025.75.89.193 1.993.08 1.102-.116 1.939-.455.863-.349 1.959-1.132.535-.388.851-.43.326-.06.662.178.447.313.433.708 0 .379-.462 1.036l-3.952 5.648-6.657-4.658z" style="color-rendering:auto;text-decoration-color:#000000;color:#98cc96;isolation:auto;mix-blend-mode:normal;shape-rendering:auto;solid-color:#000000;text-decoration-line:none;image-rendering:auto;white-space:normal;text-decoration-style:solid;fill:#fff"/>
   <path d="m241.5 121.5-16.9 15.52q-.561.515-.608.956-.04.247.01.388.06.127.435.82.476.836-.158 1.417-.374.343-.947.18-.423-.114-1.005-.748l-.449-.488-5.891-6.417-.344-.374q-.476-.518-.553-.978-.04-.458.31-.788.59-.542 1.306-.133.594.33.688.375.123.05.332.02.389-.04.892-.5l14.4-13.22q.505-.462.576-.847.05-.204 0-.318-.02-.111-.3-.731-.342-.748.248-1.289.359-.33.798-.228.465.102.94.62l.344.374 5.878 6.402zm-5.957 13.61q1.014 1.508 1.416 2.438.416.944.528 1.902.113 1.014-.219 1.898-.315.899-1.006 1.534l-2.978 2.734q-.46.423-.183.725.105.115.229.134.152.03.47-.01.82-.09 1.163.285.225.243.191.726-.04.482-.294.72-.446.41-1.49.573-1.016.164-2.1-.01-1.017-.153-1.852-.658-.851-.493-1.709-1.428-1.744-1.899-1.642-3.955.116-2.068 2.057-3.851l2.418-2.219q.805-.74.921-.874.51-.6.623-1.314.121-.879-.507-1.735l1.54-1.414q.828.671 1.42.738.523.05.946-.153.437-.189 1.084-.783l3.813-3.501q.906-.833 1.022-1.602.128-.755-.458-1.913l1.597-1.466.344.374q1.466 1.597 2.381 2.825 1.374 1.814 1.641 3.982.393 3.113-2.082 5.385-2.028 1.862-4.485 1.786-1.035-.03-2.041-.433-.993-.389-2.759-1.445z" style="color-rendering:auto;text-decoration-color:#000000;color:#98cc96;isolation:auto;mix-blend-mode:normal;shape-rendering:auto;solid-color:#000000;text-decoration-line:none;image-rendering:auto;white-space:normal;text-decoration-style:solid;fill:#fff"/>
  </g>
 </g>
 <g class="wheel-text--bike-shop">
  <g>
   <g>
    <path d="m42.5 128.8 21.32 16.01-5.218 6.951-.3049.406q-.4222.562-.8597.722-.4415.132-.832-.16-.6404-.481-.3743-1.259.2151-.644.2425-.746.024-.128-.047-.328-.1092-.375-.6559-.785l-15.63-11.8q-.5467-.411-.9373-.41-.2109-.01-.3125.06-.1055.04-.6643.43-.6721.472-1.312 0-.3905-.293-.3707-.742.016-.476.4381-1.039l.3048-.406 5.218-6.951zm13.92 2.859q1.337-1.195 2.165-1.745.84-.566 1.703-.87 1.457-.543 2.977-.257 1.516.258 2.874 1.279 2.671 2.006 2.693 5.099.019 1.602-.5796 3.082-.6023 1.453-2.092 3.436l-1.395 1.859-1.64-1.231q.4222-.661.567-1.114.1291-.464.027-.98-.1909-.95-1.409-1.864l-3.546-2.662q-.781-.586-1.324-.774-.5311-.203-1.16-.114-.4805.05-.8399.274-.3595.218-.8715.737l-1.624-1.219q.3871-.614.5122-1.008.1369-.41.087-.863-.047-.426-.2926-.879-.2458-.453-.5465-.704l-.8591-.644-2.702-2.029q-.4218-.317-.9803-.516-.5741-.211-.9921-.208-.582.03-1.035.273-.4415.231-.9731.809l-1.718-1.29 1.348-1.797q2.674-3.561 5.549-4.333 1.316-.355 2.609-.09 1.293.262 2.402 1.095 1.093.82 1.71 2.016.6282 1.18.6472 2.488.043.985-.2432 2.016-.2857 1.031-1.048 2.73z" style="color:#98cc96"/>
    <path d="m82.7 125.8-6.771 5.479-.3948.32q-.5466.441-1.01.49-.4605.02-.7677-.358-.5037-.623-.056-1.311.3659-.573.4173-.665.055-.119.034-.329-.015-.391-.4444-.922l-12.3-15.2q-.43-.531-.8089-.627-.2016-.06-.3173-.02-.1128.02-.7489.254-.7671.294-1.271-.329-.3072-.379-.1785-.81.1317-.458.6782-.901l.3948-.319 6.772-5.48.3947-.319q.5466-.442 1.007-.464.4633-.05.7705.332.5038.622.056 1.311-.3659.572-.4202.691-.052.09-.032.302.015.391.4445.923l12.3 15.2q.43.532.8088.627.2016.06.3144.05.1157-.04.7518-.283.767-.294 1.271.329.3071.38.1755.838-.1288.43-.6754.873l-.3947.32z" style="color:#98cc96"/>
    <path d="m96.63 117.5-7.86 3.755-.4582.218q-.6345.304-1.096.242-.4527-.09-.6631-.527-.3452-.722.2503-1.288.4891-.472.5603-.549.081-.103.1105-.313.076-.382-.2178-1l-8.426-17.64q-.2946-.617-.6408-.7979-.1815-.1081-.3041-.093-.1134-.011-.7875.073-.8145.1075-1.16-.615-.2104-.4407.015-.8297.2347-.4151.8691-.7182l.4582-.2188 7.86-3.754.4583-.2189q.6345-.303 1.087-.2163.4619.06.6724.5014.3451.7225-.2504 1.288-.489.4716-.5695.5751-.071.077-.1012.2864-.077.383.2178.9999l8.426 17.64q.4714.986 1.067.919l.6306-.08q.7707-.108 1.124.632.4377.917-.8136 1.514l-.4581.219zm-1.178-20.41 11.97 11.38q.48.462.853.652.363.173.809.155.454 0 .602.04.364.13.558.534.446.934-.876 1.566l-8.864 4.234q-.6348.303-1.114.207-.4611-.104-.6968-.598-.2694-.563.2312-1.192.3128-.388.3947-.579.074-.208-.018-.446-.059-.123-.4103-.496l-5.472-5.655q-.7632-.783-1.075-1.434-.2946-.618-.1287-1.584l1.375-7.951q.30-1.09-.13-1.99-.23-.49-.70-.79t-.99-.26l-.7608.038q-.7171.039-.9949-.542-.2273-.4758 0-.9523.1541-.3117.7181-.5811l6.274-2.997q.6154-.2944 1.085-.1724.4787.096.7144.5895.3536.7402-.3056 1.445l-.7573.8162q-.4805.4893-1.026 1.659-.4003.8839-.756 2.677l-.4163 2.255z" style="color:#98cc96"/>
    <path d="m119 82.12 5.046 26.18-8.534 1.645-.499.1q-.69.134-1.121-.05-.416-.198-.509-.677-.151-.787.568-1.184.592-.333.68-.389.104-.08.186-.275.171-.351.04-1.022l-3.7-19.2q-.13-.6712-.419-.9337-.148-.1504-.27-.1666-.107-.039-.781-.128-.816-.1014-.967-.8877-.09-.4794.224-.7991.332-.3424 1.022-.4754l.499-.096 8.534-1.645zm1.707-.329 7.729-1.49 1.308 6.789q.115.5945-.06.9073-.179.3129-.677.409-.422.082-.648-.054-.224-.1357-.501-.6393-1.157-2.084-2.802-2.98-1.625-.9-3.914-.6976l-.432-2.244zm2.596 13.98-.429-2.225q1.009-.7514 1.424-1.488.414-.7364.461-1.839 0-.7583.21-1.075.194-.3358.654-.4244.614-.1183.937.3167.182.2234.351 1.106l1.409 7.307q.174.9015.03 1.287-.126.3822-.663.4857-.44.085-.742-.1354-.301-.2205-.576-.8237-.581-1.26-1.332-1.852-.731-.595-1.734-.6404zm2.47 12.19-.4-2.072q1.21-.432 1.949-.932.758-.504 1.446-1.372.688-.869 1.023-1.71.35-.863.551-2.194.09-.6543.283-.9097.185-.2745.588-.3521.537-.1035.811.1818.27.2662.422 1.052l1.304 6.769-7.977 1.539z" style="color:#98cc96"/>
    <path d="m159.5 80.63-.311 2.224q-1.245.1613-1.981.7684-.713.5905-.854 1.596-.135.9671.284 1.775.423.7887 1.511 1.611.75.5584 3.437 2.216 1.635.9977 2.496 1.749.884.7348 1.608 1.763 1.947 2.718 1.484 6.026-.348 2.495-1.875 4.391-1.527 1.897-3.859 2.775-1.247.456-2.689.61-1.425.176-2.624 0l.308-2.205q1.74-.172 2.575-.784.857-.63 1.031-1.868.181-1.296-.842-2.445-.684-.746-2.718-1.997-2.234-1.377-3.061-1.946-.808-.5666-1.537-1.28-3.275-3.1-2.671-7.414.308-2.205 1.477-3.935 1.171-1.749 2.955-2.663 2.485-1.27 5.856-.9761zm1.217 2.438.297-2.128q1.151.2396 1.969.5907.822.3317 2.296 1.208.366.2089.617.2439.368.051.576-.1757l.504-.5014q.37-.3823.815-.3202.522.073.7.4924.199.4026.08 1.215l-.893 6.383q-.08.5609-.458.8825-.359.305-.862.2346-.387-.054-.68-.3515-.153-.179-.239-.4081-.06-.2456-.09-.7813-.08-.9776-.462-2.056-.382-1.079-.967-1.969-1.174-1.762-3.212-2.559zm-5.751 22.66-.308 2.205q-1.587-.221-3.375-1.398-.669-.429-.926-.564-.258-.135-.51-.169-.386-.05-.599.05-.209.09-.705.532-.408.377-.814.32-1.083-.151-.85-1.814l.983-7.041q.08-.5417.437-.866.364-.3436.83-.298.429.04.623.3433.216.2867.298.9686.213 1.726.842 3.292.648 1.57 1.629 2.732.995 1.205 2.445 1.703z" style="color:#98cc96"/>
    <path d="m186.2 100.1 2.978 1.126 3.015-7.964q.386-1.023-.07-1.406l-.514-.4039q-.612-.4819-.321-1.249.359-.9499 1.674-.452l.475.1797 8.129 3.077.493.1867q1.37.5186 1.011 1.468-.284.7489-1.105.7098-.678-.027-.809-.014-.105.0002-.277.1249-.329.2093-.571.8486l-6.893 18.21q-.381 1.004.08 1.431l.509.422q.641.515.35 1.281-.366.969-1.736.45l-.494-.187-8.128-3.077-.512-.193q-1.278-.484-.911-1.452.289-.767 1.073-.742l.661.02q.592.04.993-1.024l3.195-8.439-2.978-1.127.684-1.808zm-6.699 13.06-8.147-3.084-.475-.179q-.657-.249-.933-.625-.25-.387-.08-.843.283-.75 1.103-.71.68.03.785.03.13-.01.302-.137.33-.208.572-.848l6.921-18.29q.242-.6393.133-1.014-.05-.2059-.143-.2839-.07-.09-.597-.5185-.641-.514-.357-1.263.172-.4567.609-.5628.462-.1175 1.12.1314l.475.1799 8.146 3.084.476.1797q1.296.4909.937 1.441-.291.7671-1.068.7236l-.635-.032q-.599-.018-.986 1.005l-6.921 18.29q-.387 1.022.07 1.406l.498.397q.611.482.321 1.248-.359.951-1.657.46l-.475-.18z" style="color:#98cc96"/>
    <path d="m220.2 106q-1.014-.299-1.7-.05-.687.251-1.373 1.202l-10.22 14.16q-1.006 1.393-1.037 2.238-.04.692.6 1.469l-1.257 1.742q-3.31-2.823-3.981-6.897-.87-5.302 3.098-10.8 1.988-2.756 4.396-4.39 2.437-1.638 5.156-2.035 2.077-.307 3.932.09 1.856.401 3.623 1.556l-1.235 1.711zm1.298.937 1.235-1.71q1.654 1.314 2.616 2.949.98 1.646 1.341 3.715.955 5.483-3.091 11.09-3.968 5.494-9.274 6.337-4.09.66-7.815-1.62l1.257-1.742q.48.202.805.22.352 0 .748-.134.896-.341 1.845-1.656l10.22-14.16q.605-.839.675-1.536.05-.47-.08-.854-.116-.373-.482-.902z" style="color:#98cc96"/>
    <path d="m244.7 126.5-17.33 15.04q-.575.5-.634.938-.04.246 0 .388.06.129.412.832.452.848-.197 1.412-.383.333-.953.154-.42-.126-.983-.775l-.436-.502-5.709-6.578-.333-.384q-.461-.53-.526-.992-.04-.459.332-.779.605-.525 1.309-.103.584.347.678.394.122.05.33.02.39-.03.907-.477l14.76-12.82q.516-.449.598-.83.06-.204 0-.318-.02-.112-.281-.74-.32-.756.285-1.281.369-.321.804-.206.462.115.923.646l.333.384 5.697 6.563zm-11.33 12.03 1.578-1.37q.698.506 1.078.616.393.125.898.02.845-.189 1.818-1.034l4.72-4.098q.693-.601.943-.999.249-.398.26-.951.04-.786-.482-1.598l1.594-1.383q2.637 3.038 3.316 4.983.783 2.243.257 4.407-.543 2.204-2.579 3.972-2.271 1.971-4.588 2.223-2.301.239-4.541-.971-1.839-1.016-4.272-3.819z" style="color:#98cc96"/>
   </g>
  </g>
  <g>
   <g style="display:none">
    <path style="color:#98cc96" d="m40.9 127.2 21.32 16.01-5.218 6.951-.3049.406q-.4222.562-.8597.722-.4415.132-.832-.16-.6404-.481-.3743-1.259.2151-.644.2425-.746.024-.128-.047-.328-.1092-.375-.6559-.785l-15.63-11.8q-.5467-.411-.9373-.41-.2109-.01-.3125.06-.1055.04-.6643.43-.6721.472-1.312 0-.3905-.293-.3707-.742.016-.476.4381-1.039l.3048-.406 5.218-6.951zm13.92 2.859q1.337-1.195 2.165-1.745.84-.566 1.703-.87 1.457-.543 2.977-.257 1.516.258 2.874 1.279 2.671 2.006 2.693 5.099.019 1.602-.5796 3.082-.6023 1.453-2.092 3.436l-1.395 1.859-1.64-1.231q.4222-.661.567-1.114.1291-.464.027-.98-.1909-.95-1.409-1.864l-3.546-2.662q-.781-.586-1.324-.774-.5311-.203-1.16-.114-.4805.05-.8399.274-.3595.218-.8715.737l-1.624-1.219q.3871-.614.5122-1.008.1369-.41.087-.863-.047-.426-.2926-.879-.2458-.453-.5465-.704l-.8591-.644-2.702-2.029q-.4218-.317-.9803-.516-.5741-.211-.9921-.208-.582.03-1.035.273-.4415.231-.9731.809l-1.718-1.29 1.348-1.797q2.674-3.561 5.549-4.333 1.316-.355 2.609-.09 1.293.262 2.402 1.095 1.093.82 1.71 2.016.6282 1.18.6472 2.488.043.985-.2432 2.016-.2857 1.031-1.048 2.73z"/>
    <path style="color:#98cc96" d="m81.1 124.2-6.771 5.479-.3948.32q-.5466.441-1.01.49-.4605.02-.7677-.358-.5037-.623-.056-1.311.3659-.573.4173-.665.055-.119.034-.329-.015-.391-.4444-.922l-12.3-15.2q-.43-.531-.8089-.627-.2016-.06-.3173-.02-.1128.02-.7489.254-.7671.294-1.271-.329-.3072-.379-.1785-.81.1317-.458.6782-.901l.3948-.319 6.772-5.48.3947-.319q.5466-.442 1.007-.464.4633-.05.7705.332.5038.622.056 1.311-.3659.572-.4202.691-.052.09-.032.302.015.391.4445.923l12.3 15.2q.43.532.8088.627.2016.06.3144.05.1157-.04.7518-.283.767-.294 1.271.329.3071.38.1755.838-.1288.43-.6754.873l-.3947.32z"/>
    <path style="color:#98cc96" d="m95.03 115.9-7.86 3.755-.4582.218q-.6345.304-1.096.242-.4527-.09-.6631-.527-.3452-.722.2503-1.288.4891-.472.5603-.549.081-.103.1105-.313.076-.382-.2178-1l-8.42-17.75q-.2946-.6168-.6408-.7977-.1815-.1081-.3041-.093-.1134-.011-.7875.073-.8145.1075-1.16-.615-.2104-.4407.015-.8297.2347-.4151.8691-.7182l.4582-.2188 7.86-3.754.4583-.2189q.6345-.303 1.087-.2163.4619.06.6724.5014.3451.7225-.2504 1.288-.489.4716-.5695.5751-.071.077-.1012.2864-.077.383.2178.9999l8.426 17.64q.4714.986 1.067.919l.6306-.08q.7707-.108 1.124.632.4377.917-.8136 1.514l-.4581.219zm-1.178-20.41 11.97 11.38q.48.462.853.652.363.173.809.155.454 0 .602.04.364.13.558.534.446.934-.876 1.566l-8.864 4.234q-.6345.303-1.113.207-.4611-.104-.6968-.598-.2694-.563.2312-1.192.3128-.388.3947-.579.074-.208-.018-.446-.059-.123-.4103-.496l-5.472-5.655q-.7632-.783-1.075-1.434-.2946-.618-.1287-1.584l1.375-7.951q.26-1.09-.17-1.99-.23-.49-.70-.79t-.99-.26l-.7608.038q-.7171.039-.9949-.542-.2273-.4758 0-.9523.1541-.3117.7181-.5811l6.274-2.997q.62-.30 1.09-.18.4787.096.7144.5895.3536.7402-.3056 1.445l-.7573.8162q-.4805.4893-1.026 1.659-.4003.8839-.756 2.677l-.4163 2.255z"/>
    <path style="color:#98cc96" d="m117.4 80.52 5.046 26.18-8.534 1.645-.499.1q-.69.134-1.121-.05-.416-.198-.509-.677-.151-.787.568-1.184.592-.333.68-.389.104-.08.186-.275.171-.351.04-1.022l-3.7-19.2q-.13-.6712-.419-.9337-.148-.1504-.27-.1666-.107-.039-.781-.128-.816-.1014-.967-.8877-.09-.4794.224-.7991.332-.3424 1.022-.4754l.499-.096 8.534-1.645zm1.707-.329 7.729-1.49 1.308 6.789q.115.5945-.06.9073-.179.3129-.677.409-.422.082-.648-.054-.224-.1357-.501-.6393-1.157-2.084-2.802-2.98-1.625-.9-3.914-.6976l-.432-2.244zm2.596 13.98-.429-2.225q1.009-.7514 1.424-1.488.414-.7364.461-1.839 0-.7583.21-1.075.194-.3358.654-.4244.614-.1183.937.3167.182.2234.351 1.106l1.409 7.307q.174.9015.03 1.287-.126.3822-.663.4857-.44.085-.742-.1354-.301-.2205-.576-.8237-.581-1.26-1.332-1.852-.731-.595-1.734-.6404zm2.47 12.19-.4-2.072q1.21-.432 1.949-.932.758-.504 1.446-1.372.688-.869 1.023-1.71.35-.8628.551-2.194.09-.6543.283-.9097.185-.2745.588-.3521.537-.1035.811.1818.27.2662.422 1.052l1.304 6.769-7.977 1.539z"/>
    <path style="color:#98cc96" d="m157.9 79.03-.311 2.224q-1.245.1613-1.981.7684-.713.5905-.854 1.596-.135.9671.284 1.775.423.7887 1.511 1.611.75.5584 3.437 2.216 1.635.9977 2.496 1.749.884.7348 1.608 1.763 1.947 2.718 1.484 6.025-.348 2.495-1.875 4.391-1.527 1.897-3.859 2.775-1.247.456-2.689.61-1.425.176-2.624 0l.308-2.205q1.74-.172 2.575-.784.857-.63 1.031-1.868.181-1.296-.842-2.445-.684-.7464-2.718-1.997-2.234-1.377-3.061-1.946-.808-.5666-1.537-1.28-3.275-3.1-2.671-7.414.308-2.205 1.477-3.935 1.171-1.749 2.955-2.663 2.485-1.27 5.856-.9761zm1.217 2.438.297-2.128q1.151.2396 1.969.5907.822.3317 2.296 1.208.366.2089.617.2439.368.051.576-.1757l.504-.5014q.37-.3823.815-.3202.522.073.7.4924.199.4026.08 1.215l-.893 6.383q-.08.5609-.458.8825-.359.305-.862.2346-.387-.054-.68-.3515-.153-.179-.239-.4081-.06-.2456-.09-.7813-.08-.9776-.462-2.056-.382-1.079-.967-1.969-1.174-1.762-3.212-2.559zm-5.751 22.66-.308 2.205q-1.587-.221-3.375-1.398-.669-.429-.926-.564-.258-.135-.51-.169-.386-.05-.599.05-.209.09-.705.532-.408.377-.814.32-1.083-.151-.85-1.814l.983-7.041q.08-.5417.437-.866.364-.3436.83-.298.429.04.623.3433.216.2867.298.9686.213 1.726.842 3.293.648 1.57 1.629 2.732.995 1.205 2.445 1.703z"/>
    <path style="color:#98cc96" d="m184.6 98.5 2.978 1.127 3.015-7.964q.386-1.023-.07-1.406l-.514-.4039q-.612-.4819-.321-1.249.359-.9499 1.674-.452l.475.1797 8.129 3.077.493.1867q1.37.5186 1.011 1.468-.284.7489-1.105.7098-.678-.027-.809-.014-.105.0002-.277.1249-.329.2093-.571.8486l-6.893 18.21q-.381 1.004.08 1.431l.509.422q.641.515.35 1.281-.366.969-1.736.45l-.494-.187-8.128-3.077-.512-.193q-1.278-.484-.911-1.452.289-.767 1.073-.742l.661.02q.592.04.993-1.024l3.195-8.439-2.978-1.127.684-1.808zm-6.699 13.06-8.147-3.084-.475-.179q-.657-.249-.933-.625-.25-.387-.08-.843.283-.75 1.103-.71.68.03.785.03.13-.01.302-.137.33-.208.572-.848l6.921-18.29q.242-.6393.133-1.014-.05-.2059-.143-.2839-.07-.09-.597-.5185-.641-.514-.357-1.263.172-.4567.609-.5628.462-.1175 1.12.1314l.475.1799 8.146 3.084.476.1797q1.296.4909.937 1.441-.291.7671-1.068.7236l-.635-.032q-.599-.018-.986 1.005l-6.921 18.29q-.387 1.022.07 1.406l.498.397q.611.482.321 1.248-.359.951-1.657.46l-.475-.18z"/>
    <path style="color:#98cc96" d="m218.6 104.4q-1.014-.299-1.7-.05-.687.251-1.373 1.202l-10.22 14.16q-1.006 1.393-1.037 2.238-.04.692.6 1.469l-1.257 1.742q-3.31-2.823-3.981-6.897-.87-5.302 3.098-10.8 1.988-2.756 4.396-4.39 2.437-1.638 5.156-2.035 2.077-.307 3.932.09 1.856.401 3.623 1.556l-1.235 1.711zm1.298.937 1.235-1.71q1.654 1.314 2.616 2.949.98 1.646 1.341 3.715.955 5.483-3.091 11.09-3.968 5.494-9.274 6.337-4.09.66-7.815-1.62l1.257-1.742q.48.202.805.22.352 0 .748-.134.896-.341 1.845-1.656l10.22-14.16q.605-.839.675-1.536.05-.47-.08-.854-.116-.373-.482-.902z"/>
    <path style="color:#98cc96" d="m243.1 124.9-17.33 15.04q-.575.5-.634.938-.04.246 0 .388.06.129.412.832.452.848-.197 1.412-.383.333-.953.154-.42-.126-.983-.775l-.436-.502-5.709-6.578-.333-.384q-.461-.53-.526-.992-.04-.459.332-.779.605-.525 1.309-.103.584.347.678.394.122.05.33.02.39-.03.907-.477l14.76-12.82q.516-.449.598-.83.06-.204 0-.318-.02-.112-.281-.74-.32-.756.285-1.281.369-.321.804-.206.462.115.923.646l.333.384 5.697 6.563zm-11.33 12.03 1.578-1.37q.698.506 1.078.616.393.125.898.02.845-.189 1.818-1.034l4.72-4.098q.693-.601.943-.999.249-.398.26-.951.04-.786-.482-1.598l1.594-1.383q2.637 3.038 3.316 4.983.783 2.243.257 4.407-.543 2.204-2.579 3.972-2.271 1.971-4.588 2.223-2.301.239-4.541-.971-1.839-1.016-4.272-3.819z"/>
   </g>
  </g>
  <path d="m42.5 127.2 21.32 16.01-5.218 6.951-.3049.406q-.4222.562-.8597.722-.4415.132-.832-.16-.6404-.481-.3743-1.259.2151-.644.2425-.746.024-.128-.047-.328-.1092-.375-.6559-.785l-15.63-11.8q-.5467-.411-.9373-.41-.2109-.01-.3125.06-.1055.04-.6643.43-.6721.472-1.312 0-.3905-.293-.3707-.742.016-.476.4381-1.039l.3048-.406 5.218-6.951zm13.92 2.859q1.337-1.195 2.165-1.745.84-.566 1.703-.87 1.457-.543 2.977-.257 1.516.258 2.874 1.279 2.671 2.006 2.693 5.099.019 1.602-.5796 3.082-.6023 1.453-2.092 3.436l-1.395 1.859-1.64-1.231q.4222-.661.567-1.114.1291-.464.027-.98-.1909-.95-1.409-1.864l-3.546-2.662q-.781-.586-1.324-.774-.5311-.203-1.16-.114-.4805.05-.8399.274-.3595.218-.8715.737l-1.624-1.219q.3871-.614.5122-1.008.1369-.41.087-.863-.047-.426-.2926-.879-.2458-.453-.5465-.704l-.8591-.644-2.702-2.029q-.4218-.317-.9803-.516-.5741-.211-.9921-.208-.582.03-1.035.273-.4415.231-.9731.809l-1.718-1.29 1.348-1.797q2.674-3.561 5.549-4.333 1.316-.355 2.609-.09 1.293.262 2.402 1.095 1.093.82 1.71 2.016.6282 1.18.6472 2.488.043.985-.2432 2.016-.2857 1.031-1.048 2.73z" style="color:#98cc96;fill:#fff"/>
  <path d="m82.7 124.2-6.771 5.479-.3948.32q-.5466.441-1.01.49-.4605.02-.7677-.358-.5037-.623-.056-1.311.3659-.573.4173-.665.055-.119.034-.329-.015-.391-.4444-.922l-12.3-15.2q-.43-.531-.8089-.627-.2016-.06-.3173-.02-.1128.02-.7489.254-.7671.294-1.271-.329-.3072-.379-.1785-.81.1317-.458.6782-.901l.3948-.319 6.772-5.48.3947-.319q.5466-.442 1.007-.464.4633-.05.7705.332.5038.622.056 1.311-.3659.572-.4202.691-.052.09-.032.302.015.391.4445.923l12.3 15.2q.43.532.8088.627.2016.06.3144.05.1157-.04.7518-.283.767-.294 1.271.329.3071.38.1755.838-.1288.43-.6754.873l-.3947.32z" style="color:#98cc96;fill:#fff"/>
  <path d="m96.63 115.9-7.86 3.755-.4582.218q-.6345.304-1.096.242-.4527-.09-.6631-.527-.3452-.722.2503-1.288.4891-.472.5603-.549.081-.103.1105-.313.076-.382-.2178-1l-8.42-17.75q-.2946-.617-.6408-.7979-.1815-.1081-.3041-.093-.1134-.011-.7875.073-.8145.1075-1.16-.615-.2104-.4407.015-.8297.2347-.4151.8691-.7182l.4582-.2188 7.86-3.754.4583-.2189q.6345-.303 1.087-.2163.4619.06.6724.5014.3451.7225-.2504 1.288-.489.4716-.5695.5751-.071.077-.1012.2864-.077.383.2178.9999l8.426 17.64q.4714.986 1.067.919l.6306-.08q.7707-.108 1.124.632.4377.917-.8136 1.514l-.4581.219zm-1.178-20.41 11.97 11.38q.48.462.853.652.363.173.809.155.454 0 .602.04.364.13.558.534.446.934-.876 1.566l-8.864 4.234q-.6348.303-1.114.207-.4611-.104-.6968-.598-.2694-.563.2312-1.192.3128-.388.3947-.579.074-.208-.018-.446-.059-.123-.4103-.496l-5.472-5.655q-.7632-.783-1.075-1.434-.2946-.618-.1287-1.584l1.375-7.951q.30-1.09-.13-1.99-.23-.49-.70-.79t-.99-.26l-.7608.038q-.7171.039-.9949-.542-.2273-.4758 0-.9523.1541-.3117.7181-.5811l6.274-2.997q.62-.30 1.09-.18.4787.096.7144.5895.3536.7402-.3056 1.445l-.7573.8162q-.4805.4893-1.026 1.659-.4003.8839-.756 2.677l-.4163 2.255z" style="color:#98cc96;fill:#fff"/>
  <path d="m119 80.52 5.046 26.18-8.534 1.645-.499.1q-.69.134-1.121-.05-.416-.198-.509-.677-.151-.787.568-1.184.592-.333.68-.389.104-.08.186-.275.171-.351.04-1.022l-3.7-19.2q-.13-.6712-.419-.9337-.148-.1504-.27-.1666-.107-.039-.781-.128-.816-.1014-.967-.8877-.09-.4794.224-.7991.332-.3424 1.022-.4754l.499-.096 8.534-1.645zm1.707-.329 7.729-1.49 1.308 6.789q.115.5945-.06.9073-.179.3129-.677.409-.422.082-.648-.054-.224-.1357-.501-.6393-1.157-2.084-2.802-2.98-1.625-.9-3.914-.6976l-.432-2.244zm2.596 13.98-.429-2.225q1.009-.7514 1.424-1.488.414-.7364.461-1.839 0-.7583.21-1.075.194-.3358.654-.4244.614-.1183.937.3167.182.2234.351 1.106l1.409 7.307q.174.9015.03 1.287-.126.3822-.663.4857-.44.085-.742-.1354-.301-.2205-.576-.8237-.581-1.26-1.332-1.852-.731-.595-1.734-.6404zm2.47 12.19-.4-2.072q1.21-.432 1.949-.932.758-.504 1.446-1.372.688-.869 1.023-1.71.35-.863.551-2.194.09-.6543.283-.9097.185-.2745.588-.3521.537-.1035.811.1818.27.2662.422 1.052l1.304 6.769-7.977 1.539z" style="color:#98cc96;fill:#fff"/>
  <path d="m159.5 79.03-.311 2.224q-1.245.1613-1.981.7684-.713.5905-.854 1.596-.135.9671.284 1.775.423.7887 1.511 1.611.75.5584 3.437 2.216 1.635.9977 2.496 1.749.884.7348 1.608 1.763 1.947 2.718 1.484 6.026-.348 2.495-1.875 4.391-1.527 1.897-3.859 2.775-1.247.456-2.689.61-1.425.176-2.624 0l.308-2.205q1.74-.172 2.575-.784.857-.63 1.031-1.868.181-1.296-.842-2.445-.684-.746-2.718-1.997-2.234-1.377-3.061-1.946-.808-.5666-1.537-1.28-3.275-3.1-2.671-7.414.308-2.205 1.477-3.935 1.171-1.749 2.955-2.663 2.485-1.27 5.856-.9761zm1.217 2.438.297-2.128q1.151.2396 1.969.5907.822.3317 2.296 1.208.366.2089.617.2439.368.051.576-.1757l.504-.5014q.37-.3823.815-.3202.522.073.7.4924.199.4026.08 1.215l-.893 6.383q-.08.5609-.458.8825-.359.305-.862.2346-.387-.054-.68-.3515-.153-.179-.239-.4081-.06-.2456-.09-.7813-.08-.9776-.462-2.056-.382-1.079-.967-1.969-1.174-1.762-3.212-2.559zm-5.751 22.66-.308 2.205q-1.587-.221-3.375-1.398-.669-.429-.926-.564-.258-.135-.51-.169-.386-.05-.599.05-.209.09-.705.532-.408.377-.814.32-1.083-.151-.85-1.814l.983-7.041q.08-.5417.437-.866.364-.3436.83-.298.429.04.623.3433.216.2867.298.9686.213 1.726.842 3.292.648 1.57 1.629 2.732.995 1.205 2.445 1.703z" style="color:#98cc96;fill:#fff"/>
  <path d="m186.2 98.5 2.978 1.126 3.015-7.964q.386-1.023-.07-1.406l-.514-.4039q-.612-.4819-.321-1.249.359-.9499 1.674-.452l.475.1797 8.129 3.077.493.1867q1.37.5186 1.011 1.468-.284.7489-1.105.7098-.678-.027-.809-.014-.105.0002-.277.1249-.329.2093-.571.8486l-6.893 18.21q-.381 1.004.08 1.431l.509.422q.641.515.35 1.281-.366.969-1.736.45l-.494-.187-8.128-3.077-.512-.193q-1.278-.484-.911-1.452.289-.767 1.073-.742l.661.02q.592.04.993-1.024l3.195-8.439-2.978-1.127.684-1.808zm-6.699 13.06-8.147-3.084-.475-.179q-.657-.249-.933-.625-.25-.387-.08-.843.283-.75 1.103-.71.68.03.785.03.13-.01.302-.137.33-.208.572-.848l6.921-18.29q.242-.6393.133-1.014-.05-.2059-.143-.2839-.07-.09-.597-.5185-.641-.514-.357-1.263.172-.4567.609-.5628.462-.1175 1.12.1314l.475.1799 8.146 3.084.476.1797q1.296.4909.937 1.441-.291.7671-1.068.7236l-.635-.032q-.599-.018-.986 1.005l-6.921 18.29q-.387 1.022.07 1.406l.498.397q.611.482.321 1.248-.359.951-1.657.46l-.475-.18z" style="color:#98cc96;fill:#fff"/>
  <path d="m220.2 104.4q-1.014-.299-1.7-.05-.687.251-1.373 1.202l-10.22 14.16q-1.006 1.393-1.037 2.238-.04.692.6 1.469l-1.257 1.742q-3.31-2.823-3.981-6.897-.87-5.302 3.098-10.8 1.988-2.756 4.396-4.39 2.437-1.638 5.156-2.035 2.077-.307 3.932.09 1.856.401 3.623 1.556l-1.235 1.711zm1.298.937 1.235-1.71q1.654 1.314 2.616 2.949.98 1.646 1.341 3.715.955 5.483-3.091 11.09-3.968 5.494-9.274 6.337-4.09.66-7.815-1.62l1.257-1.742q.48.202.805.22.352 0 .748-.134.896-.341 1.845-1.656l10.22-14.16q.605-.839.675-1.536.05-.47-.08-.854-.116-.373-.482-.902z" style="color:#98cc96;fill:#fff"/>
  <path d="m244.7 124.9-17.33 15.04q-.575.5-.634.938-.04.246 0 .388.06.129.412.832.452.848-.197 1.412-.383.333-.953.154-.42-.126-.983-.775l-.436-.502-5.709-6.578-.333-.384q-.461-.53-.526-.992-.04-.459.332-.779.605-.525 1.309-.103.584.347.678.394.122.05.33.02.39-.03.907-.477l14.76-12.82q.516-.449.598-.83.06-.204 0-.318-.02-.112-.281-.74-.32-.756.285-1.281.369-.321.804-.206.462.115.923.646l.333.384 5.697 6.563zm-11.33 12.03 1.578-1.37q.698.506 1.078.616.393.125.898.02.845-.189 1.818-1.034l4.72-4.098q.693-.601.943-.999.249-.398.26-.951.04-.786-.482-1.598l1.594-1.383q2.637 3.038 3.316 4.983.783 2.243.257 4.407-.543 2.204-2.579 3.972-2.271 1.971-4.588 2.223-2.301.239-4.541-.971-1.839-1.016-4.272-3.819z" style="color:#98cc96;fill:#fff"/>
 </g>
</svg>
