<svg xmlns="http://www.w3.org/2000/svg" viewBox="0 0 288 288" version="1.1" xmlns:xlink="http://www.w3.org/1999/xlink">
 <g>
  <path id="wheel-text-path" style="display:none" d="m51.72 158.3c14.84-33.7 51.3-53.42 88.42-53.42 38.14 1.759 70.12 17.94 92.27 52.52"/>
 </g>
 <g>
  <circle cx="144" class="wheel-bg" cy="142.8" r="128.6"/>
  <path d="m137.6 262.1c.219 1.245 2.934 1.352 3.676.817.597-1.556-1.828-.08-1.227-1.633-.449-19.72 5.5-38.53 5.715-57.57-2.5 19.14-5.121 38.16-7.754 57.16-.637 1.454 1.383.247 1.223 1.227-.813.68-.52-.04-1.633 0"/>
  <path style="stroke-linejoin:round;stroke:#000;stroke-linecap:round;stroke-width:.12;fill:none" d="m148.6 213.1c-.172-.7-.317-1.407-.453-2.119"/>
  <path d="m149 214.7c2.328 8.964 3.519 19.07 6.531 27.36-2.211-9.087-3.637-18.96-6.531-27.36"/>
  <path d="m173.3 263.6c1.254-.309 2.5-.633 3.726-.977-.976.606-2.402.758-3.75.992h.02m-40.44 3.254c.973.02 2.004.03 3.067.04.429.02.855.06 1.289.08 10.84.539 20.96-.29 30.38-2.125-9.84 2.496-22.85 2.894-34.74 2m-107.2-127.7c25.37 1.496 49.73 7.012 75.12 9.796-19.78 8.368-40.3 18.5-61.24 26.13-2.738.996-5.391 2.55-8.164 2.449-2.125-1.367-2.617-4.903-3.266-7.757-.6875-3.012-.8711-6.508-1.633-9.391.4961-.777 5.586-.691 3.672-1.223 15.35-1.41 35.23-1.777 52.67-2.449-18.34-.812-39.63 2.008-56.75 1.223-.12-6.1-1.63-12.8-.41-18.8m2.039-20.82c25.09 2.672 51.71 6.612 77.57 9.8-24.27-5.261-53.55-5.508-76.75-11.84 1.031-6.73 3.195-12.32 5.309-17.96 16.05 4.534 32.06 9.726 46.95 14.29 3.02.926 6.566 1.294 9.391 2.86.4415.243.8984.528 1.359.828 4.988.336 10.96 3.106 16.2 4.48-5.64-2.952-12.14-4.241-18.37-6.125-17.83-5.4-37.53-10.7-54.31-17.97 1.46-6.42 4.91-10.87 7.75-15.92 17.25 8.89 29.76 22.49 45.32 33.09-7.61-7.5-18.35-14.72-27.76-22.07-4.37-3.42-7.6-6.92-11.43-10.2-1.058-.9102-3.898-2.941-4.898-2.043 1.75-3.91 4.555-7.953 8.164-12.25.5352-.6367 3.031-3.648 3.266-3.676 1.879-.2188 7.883 7.301 9.391 8.98 19.48 21.68 41.55 45.82 60.02 66.55-7.051 3.156-14.29 6.12-21.64 8.98 7.555-1.156 15.13-5.824 22.45-8.573 1.281 1.988 3.856 2.675 4.082 5.713-1.176-.96-3.601-1.584-2.449-3.674-1.926 1.761-2.062.41-3.672-.814-1.297 1.344 1.574.822 1.223 2.45-3.703 2.012-7.129 4.305-10.62 6.532 3.648-.743 7.812-4.414 11.43-6.532 1.547.914 3.422 2.71 4.492 2.856-1.004 2.129-2.023 4.238-3.265 6.125-33.25-4.852-67.55-9.071-100.4-15.11-2.199-5.624.9765-12.88 1.222-18.78m4.48-21.67c-.4806 5.375-3.746 11.5-5.309 17.15.6016-5.253 3.215-12.03 5.309-17.15m7.76-15.92c.4728-.066.7267.09.8164.4062-2.418 4.797-5.035 9.391-7.352 14.29-.2696-3.937 4.684-10.19 6.535-14.7m13.47-18.38c.6913-.1484.7695.3203.8164.8203-4.95 4.85-8.1 11.51-13.07 16.33 3.15-6.65 8.12-11.47 12.25-17.15m18.37-15.92c-5.26 5.36-10.98 10.26-16.74 15.11 4.72-5.9 9.96-11.28 16.74-15.11m0 2.449c-.094 2.289 3.453 5.711 5.308 6.125 15.53 17.95 31.64 35.31 47.77 52.67 1.445 6.312 2.207 13.31 4.492 18.78-.422-4.348-2.16-10.91-3.27-15.93 1.559-1.204 3.516 4.05 5.719 4.902.903 3.583-.43 9.411 1.223 12.25.933-2.711-.547-6.524 0-10.21 3.515 2.883 5.758 7.035 9.39 9.796.297 1.118-.812.824-.816 1.632 1.305.248 1.262-.764 2.043 0-.06-.94-.06-1.897 1.223-3.264 1.832.211 1.672 2.414 2.859 3.264-1.66 1.396-3.625.372-6.531.822-.574.144-.03.718.406.816-10.23-2.023-20.78-7.25-32.25-9.39-17.07-19.8-36.07-39.32-52.25-58.77 3.918-5.606 9.688-9.359 14.7-13.88.4609.078.2265.4101 0 .4062m15.92-13.47c.3633.1797.7305.3555.8164.8125-5.07 3.371-9.84 7.035-15.92 9.391 4.199-4.238 10.26-6.617 15.11-10.2m4.898 7.754c8.152 13.77 18.31 29.05 27.76 42.87.699 6.918 2.777 12.46 3.675 19.19.61 1.472-1.925-1.052-2.859-2.044-7.6-8.04-15.3-17.37-22.91-25.76-8.91-9.85-18.75-19.14-25.32-29.4 4.195-4.238 10.08-6.797 15.11-10.2 2 1 2.516 5.644 4.492 5.305m12.23-14.69c-.52 1.93-2.777 2.125-4.082 3.266 1.207.375 4.25-.9101 5.715-1.633 6.941 15.1 8.453 35.64 13.06 53.07-10-15.04-20.72-29.36-28.98-46.13 2.215-1.73 5.356-2.539 7.754-4.086-2.282-.094-5.594 2.297-8.574 2.859 3.234-4.25 9.723-5.25 15.11-7.348m26.94 86.14c-7.32-4.656-8.086-15.87-10.21-25.72 4.75 7.226 11.5 12.45 10.21 25.72m-4.898-91.04c-1.653 2.566-7.11 1.328-9.391 3.266 2.254.2031 6.211-1.406 9.797-1.227 1.141 1.172.773 3.856.816 6.125.364.25.731.4922.817 0 .597 21.73 1.383 46.79 2.449 69.41-4.269-4.711-7.019-10.95-11.02-15.93-2.5-17.48-8.036-36.8-10.61-54.3-.05-1.043-1.367-.8125-2.449-.8164.695-.9375 2.301-.9648 3.676-1.227-1-1.375-4.555 2.035-5.309-.4062 4.125-2.383 14.02-4.906 21.23-4.898m-12.25 0c-.965.8047-2.574.961-4.082 1.223.965-.8047 2.578-.9609 4.082-1.223m40.42-3.27c-10.34-.2031-26.24.1875-36.34 2.453 9.996-2.887 23.8-3.387 36.34-2.453m-2.856 2.043c6.656.418 13.01 1.137 18.37 2.859-4.691.4765-13.7-.098-18.37-2.859m35.93 10.61c-5.789 18.16-16.27 31.64-23.68 48.18.172-14.58 3.926-35.28 4.899-46.95 1.687-1.172 1.066-4.648 2.043-6.531 6.515.8281 11.55 3.141 16.74 5.305m-16.33-7.754c5.422 1.379 10.69 2.922 15.52 4.898-5.258.625-10.03-2.766-15.52-3.266zm36.34 15.1c-3.324 1.016-6.578-2.391-9.797-4.082-3.543-1.859-7.348-3.18-10.62-4.898 7.773.3945 13.82 6.055 20.41 8.98m16.74 15.52c-.183.5938-.359-.039-.82 0-8.649 9.898-16.67 20.79-24.9 31.44-8.16 10.55-16.48 21.06-23.68 31.44-5.824 2.206-11.24 4.817-17.15 6.938 2.164-6.864.368-13.32 2.45-20.41 1.14-3.876 9.109-12.5 11.84-15.92 12.28-15.41 24.75-30.55 36.34-45.73 5.918 3.473 10.68 8.102 15.93 12.25m1.633-.4062c-5.836-4.648-12.3-8.664-17.56-13.88 6.887 3.594 12.87 8.09 17.56 13.88m13.47 14.7c-4.321-4.531-8.719-8.98-12.66-13.88 4.622 2.594 9.235 8.727 12.66 13.88m9.796 15.1c-2.976-4.52-7.136-9.988-8.98-14.29 3.496 4.262 6.727 8.789 8.98 14.29m8.981 20.82c-2.828-6.7-5.676-13.38-8.57-20 3.832 5.688 6.504 12.54 8.57 20m0 1.222c3.047 5.527 3.934 13.22 4.898 20.82-1.398-5.542-2.668-14.75-4.898-20.82m-108.2 54.3c.07-1.158.747-1.7.817-2.856.535-1.138.43 3.156-.817 2.856m-49.75 95.36c6.329 2.308 13.09 4.27 20.35 5.888-.754-.606-1.937-.782-3.266-.817 1.77-1.996 2.348-1.652 4.899-1.227-.531-.964-2.207-.789-3.266-1.222 7.977-34.76 21.38-64.09 30.62-97.58-2.265 3.043-2.961 7.656-4.082 11.84-2.984-3.137-3.664-8.582-5.719-12.65-.128-1.629 1.891-1.109 2.043-2.449-1.937.246-3.332 3.184-4.488 2.856.391-1.922 2.738-1.887 3.672-3.266-1.148-.149-2.473.792-3.266-1.228-.937.352 1.196 2.126 0 2.86-1.742-.03-.953-2.585-1.632-3.676 2.421.438 4.125 1.591 6.941 1.634.309-.08.289-.282.137-.47-.18-.112-.364-.233-.547-.348.203.05.422.192.547.348 8.097 5.099 16.82 12.82 25.18 18.84-3.383-4.672-9.54-7.577-14.29-11.43-1.398-1.129-3.39-2.711-2.449-4.899 4.406 1.856 8.242 4.278 12.25 6.532.348.07.387-.16.41-.406-3.968-2.567-8.25-4.818-12.66-6.942.129-.957.645-1.532.406-2.86-1.761.02-1.421 2.388-3.265 1.227-.406.921 1.957.957.816 3.265-1.394-.648-2.718-1.362-3.265-2.858 4.82-.895 6.55-4.879 13.47-3.672 12.88 31.05 26.04 63.62 37.15 95.12-6.293 2.555-11.96 5.733-19.19 7.348.485-1.083.356-1.267 1.637-.817-8.672-20.34-18.36-42.82-27.36-64.1-1.171-2.769-3-5.964-3.265-7.757-1.09-7.259 3.211-13.63 2.043-20.82-1.356 5.453-1.953 11.66-2.449 17.96-1.532-.923-1.805-3.097-2.454-4.903-.984 2.36 1.317 4.942 2.043 6.942-.679 5.446-1.75 10.5-2.043 16.33-1.71-3.73-2.257-8.63-3.265-13.07-.535 3.73.992 8.406 2.043 13.07.844 3.754 1.98 7.684 2.812 11.36-1.465-7.711-.965-16.32.864-25.24 5.316 11.5 10.53 23.23 15.51 35.11 4.965 11.84 10.7 23.67 13.47 36.34-5.535 1.676-11.54 2.891-17.56 4.083-1.578-5.512-3.328-11.67-4.898-18.78.644 6.318 2.816 13.73 2.449 20.82 1.668.445 1.043-1.406 2.039-1.634 15.02.05 26.55-6.065 39.6-11.43-6.516 4.777-14.95 7.641-23.68 10.21 7.023-1.742 13.63-4.074 19.87-6.894-3.488 2.5-8.484 3.492-12.79 5.168.02-.07.06-.133.08-.204-.484.168-.969.336-1.453.5-3.934 2.04-11.83 4.102-18.4 4.512-2.129.344-4.274.632-6.438.864-5.602 1.288-14.38.984-19.27.492-.668-.04-1.336-.08-2.004-.129.04.02.08.04.114.06-6.242-.395-12.21-1.071-17.34-2.571-.754-.164-1.504-.34-2.254-.518v.218c-5.418-1.382-10.68-2.925-15.51-4.91.114 0 .223 0 .332-.02m-5.257-2.035c-2.02-.621-3.938-1.528-5.809-2.551 1.891.89 3.832 1.738 5.809 2.551m-46.76-38.6c-.2774-.192-.5468-.402-.8164-.628-.7812-1.076-1.535-2.172-2.277-3.274.9766 1.356 1.992 2.668 3.094 3.902m23.27 21.23c-3.445-2.645-8.047-4.996-6.125-7.759 11.99-12.1 26.87-24.84 40.01-37.15-2.84 7.427-7.152 15.04-11.02 22.86-3.793 7.672-8.453 15.03-11.02 22.45-.328-.214-.664-.425-1.226-.405-1.113 3.113-3.035 4.668-4.082 6.941-5.465-2.7-10.12-6.212-13.88-10.62 5.363 2.528 8.856 6.929 14.29 9.391-1.332-1.531-4.113-3.543-6.941-5.715m-10.46-5.887c.1133.09.2305.18.3439.27-.074-.04-.1524-.09-.2267-.134-.039-.05-.078-.09-.1172-.136m-5.461-5.544c-2.414-2.573-4.848-5.245-6.942-7.756.2735.171.5431.363.8126.558.7577.793 1.516 1.586 2.273 2.382-.4375-.534-.8593-1.077-1.285-1.616 4.242 3.484 8.34 9.288 12.89 12.96-.5587-.09-1.086-.273-1.59-.528-.8476-.808-1.688-1.624-2.512-2.456.3281.395.6718.778.9961 1.18-.3281-.188-.6563-.392-.9844-.613-1.285-1.275-2.457-2.829-3.664-4.115m-5.71-11.9c-.332.218-.664.429-1.227.41-3.738-4.969-6.844-10.58-10.21-15.92 22.18-14.29 44.61-28.34 66.55-42.87 6.524-.692 14.06-.371 20.41-1.227-3.082 6.715-6.945 12.65-9.797 19.6-22.03 12.91-43.86 27.85-65.73 39.6.4882.469.1562 1.035 0 .407m-11.25-11.2c2.402 3.558 5.305 7.554 7.176 11.06-2.656-2.852-5.035-6.98-7.176-11.06m-2.62-5.1c.074.115.1445.232.2188.344.082.188.1601.372.2421.556-.1563-.301-.3124-.602-.4609-.9m-7.16-16.93c1.348 3.195 2.699 6.386 4.059 9.57.4921 1.313 1.012 2.574 1.582 3.676.1249.293.2539.586.3788.882-2.406-2.722-3.98-8.921-5.812-13.42-.07-.239-.1407-.473-.2071-.711m110-19.5c3.265 6.394 8.242 14.07 3.676 21.64-1.536-6.43-5-15.04-3.676-21.64m2.859 23.68c-.242 4.904-3.867 11.51-5.719 17.15-4.746 14.44-9.105 28.24-13.88 42.46-.938 2.797-1.114 5.913-2.043 8.168 0 0-1.106.225-1.223.405-1.176 1.832-1.359 4.032-1.633 5.716-7.359-1.621-14.12-3.836-20.41-6.532.3472-1.196 1.027.532 2.038 0 7.86-24.53 15.31-49.46 22.86-74.3-9.527 23.4-14.27 51.59-24.9 73.89-1.985-.462-3.727-1.172-5.309-2.039 3.531 2.793 12.8 6.543 18.78 8.168 2.488.672 6.801-.148 7.347 3.261-15.21-3.288-28.11-8.901-38.78-16.74 1.18-.563 3.308.893 4.492 1.632-.1836-1.585-1.867-1.671-2.859-2.449 11.33-22.97 23.19-45.4 34.7-68.18-3.617 3.729-5.269 9.425-7.758 14.29-14.66 12.92-31.78 28.68-44.09 40.01.1405 1.085-2.066-1.269-2.856-2.043-3.207-3.136-7.223-7.524-9.797-11.02.7148-2.956 4.816-2.53 5.304-5.714 27.14-16.27 53.73-33.09 80.84-49.4.738 8.043 5.281 15.56 4.902 23.27m-8.2-53.5c-.566-.528-.406-1.773-.41-2.86 1.516.255 2.562.978 4.082 1.228-.676 1.551-1.914 2.152-3.672 1.632m8.57 21.64c-1.242 1.083-2.804-.988-4.082-1.225.774-.613 2.504 1.289 4.082 1.225m9.801-37.56c.5 2.245.43 8.164.406 12.25-.812.548-1.945.778-2.859 1.224.867 1.78 3.324-1.996 2.859.816 1.106-1.344 2.106-2.789 4.493-2.86v2.454c-.422.16-.821.293-1.203.414 1.832.308.3 3.355.386 4.484-1.074-1.105-2.777-1.578-2.859-3.676 1.035-.04 1.922-.23 2.43-.796-5.446 1.652-7.649-.813-9.778-5.325 1.446-3.589 4.289-5.785 6.125-8.984m-5.308-.816c1.632-3.072 3.609-6.489 4.898-8.981 2.734 9.109-2.996 12.28-6.125 17.55-3.43-2.116-.25-5.792 1.227-8.573m-3.676 7.347c1.051.04.586 1.594 1.633 1.637-.539 1.227-1.016 2.516-2.45 2.855-.179-.363-.355-.73-.816-.816.254-1.512 1.148-2.391 1.633-3.676m19.6-38.38c-1.516 5.645-7.813 11.6-9.391 17.56-1.363-24.3-4.438-52.69-2.039-76.75 5.836-.668 12.22 1.293 17.96 2.043-.914 8.809-2.59 20.12-4.082 32.66-1.047 8.801-.774 18.25-2.449 24.5m-5.309 42.05c-1.285.621-2.59 1.218-4.082 1.633.84-5.141-1.027-9.34-.406-12.25.832-3.926 4.82-5.086 6.121-8.985 1.195 5.028-1.403 13.28-1.633 19.6m87.71 82.46c1.48-3.091 3.555-6.423 5.477-9.907-1.676 3.399-3.5 6.704-5.477 9.907m2.367-3.435c1.938-3.78 3.965-7.48 5.863-11.3-1.355 3.824-3.613 7.652-5.863 11.3m-3.031 4.896c.03-.04.07-.09.105-.125-.06.101-.125.207-.187.309.03-.06.06-.122.08-.184m14.62-40.23c-1.75 6.418-2.637 13.69-6.531 17.96-20.84-9.328-43.32-23.48-65.32-34.29 22.99-1.948 51.58-4.381 74.71-3.264-.235 6.43-1.063 12.27-2.45 17.56-19.37-2.435-36.05-11.01-54.71-15.52 17.7 6.249 35.85 12.05 54.3 17.56m-101.7-20.41c.383 1.5.969 1.335 2.449 3.675.52-.09.535-1.219 0-1.223.613-1.23.731 1.399 1.637 1.223 1.18-.816-1.18-1.511-.82-2.855 4.625-.548 8.535-1.813 13.07-2.453-4.359-.543-9.703 1.457-13.88 2.453-.512-.633-.824-3.246-1.633-1.228-.902.192 1.348-3.018 0-2.038.08-1.703 3.551-3.523 4.903-5.312 6.797 3.273 13.19 6.953 20 10.21-9.446 1.712-21.07 1.255-31.44 2.04.305-.922 2.289-.16 3.266-.408 1.394-.784 1.906-2.448 2.449-4.084m.816-11.84c.301.382.743.62 1.227.82-3.344.703-2.246-5.617-1.633-8.574 3.695-.387 6.473-1.692 10.21-2.043-3.723 2.64-5.16 9.401-9.801 9.797m.817 2.452c1.789-.32 2.519 1.766 3.676.816-.661-.836-1.965-1.03-2.86-1.632 2.649-4.16 6.445-7.168 8.574-11.84 3.727-.628 7.293-1.417 10.62-2.445-4.735 7.433-14.23 13.6-20.7 20.68.524-.789.699-4.336.688-5.579m83.7 65.73c-22.71-10.52-46.28-23.66-69.41-35.11-3.379-5.598-6.867-11.09-10.61-16.33 1.652 4.878 6.21 10.39 9.39 15.1-6.703-.375-8.488-9.203-11.02-15.1 6.933-.962 17.5-.466 22.86-1.634 22.35 11.27 46.3 24.46 68.59 37.15-2.113 6.068-6.77 13.9-8.985 17.15-.347-1.399-2.527-.399-.816-1.223m-10.21 19.6c1.949-4.452 7.594-8.737 10.21-13.88-1.492 4.902-6.848 9.484-10.21 13.88m-30.69 25.19c-.625.407-1.235.828-1.833 1.266-.101-.05-.199-.106-.292-.164.714-.355 1.417-.73 2.125-1.102m-1.973-1.512c5.976-1.929 12.56-6.761 17.56-11.02-3.168 5-11.09 8.783-17.14 12.25-.191-1.144-1.941-2.82-.41-1.227m1.633-48.17c9.828 7.438 20.3 14.66 28.17 24.09-3.95 4.351-8.305 8.293-13.06 11.84-10.9-12.7-20.8-32.5-31.8-47.8 8.649 15.85 20.48 32.05 29.8 48.58.199.03.352 0 .477-.04.113-.125.23-.247.336-.371-.05.183-.164.308-.336.371-3.434 3.761-9.918 7.609-15.59 10.24-1.797-1.128-1.5-5.836-4.082-4.897-.719-5.595-3.688-10.66-5.715-15.92-6.086-15.81-12.35-32.4-18.37-48.58 9.914 7.565 20.2 14.88 30.21 22.46m-19.5-15.5c-2.207-1.082-7.426-6.16-11.43-8.164-1.086-3.273-2.715-5.996-3.675-9.39 1.812.51 4.074 2.718 5.308 2.449 3.492 4.808 6.629 9.972 9.797 15.1m48.99 37.15c-9.445-6.769-24.1-18.02-35.93-26.94-3.867-2.923-9.211-5.923-11.84-8.984-3.586-4.172-4.688-10.23-8.575-13.88 11.59 4.519 23.03 11.03 34.7 17.15 11.44 5.992 24 10.71 33.07 19.19-3.539 4.492-7 11.23-11.43 13.47m-11.43 15.11c2.113-3.875 8.246-7.266 11.43-11.43-1.742 4.243-7.734 7.778-11.43 11.43m39.5-58.4c.08.214.11.637.09.946-1.234 2.82-1.523 3.234-1.285 2.23.387-1.059.793-2.118 1.191-3.176m2.543-49.27c.528 5.731.981 11.54.817 17.96-2.844.156-1.325.433-3.266 1.226-23.68.215-49.2 1.91-72.67 3.676-3.539-1.769-7.078-3.54-10.61-5.309 9.094-4.015 16.61 2.477 25.31 3.676-11.41-4.179-23.7-7.476-35.37-11.39v.02c4.347 2.524 10.29 3.458 15.38 5.239-6.071 4.496-11.14-1.563-16.74-3.269.395-.672.856-1.326 1.356-1.97-.04-.03-.09-.05-.129-.07.05 0 .09.03.144.05 4.028-5.196 11.08-9.64 15.37-15.15 25.22-5.078 52.97-11.22 76.35-15.52 1.409 6.074 3.245 11.72 3.672 18.78-.251.06-.571-.08-.816 0-6.396 2.094-13.8 3.882-21.67 5.554 7.538-1.528 15.16-2.8 22.89-3.512m-86.56-10.21c6.175-2.81 13.4-4.564 18.78-8.168-5.84 2.19-11.54 4.518-17.15 6.941 15.35-19.76 30.58-43.18 48.99-61.24 4.707 3.734 8.035 8.84 12.25 13.07-17.64 18.56-37.3 35.1-55.52 53.07 17.28-14.97 33.38-31.13 50.22-46.54 3.086-.586 3.898-3.449 6.941-4.082 3.079 4.953 6.778 9.281 8.981 15.11-15.1 9.664-35.16 14.37-51.44 22.86 15.33-5.789 30.58-12.32 45.73-17.96 2.234-.832 4.848-1.672 6.531-3.676 3.063 5.105 5.008 11.33 7.352 17.15-2.004 3.13-5.57 1.543-7.352 3.672-30.63 5.978-62.11 13.28-91.45 19.19.418-3.36 4.238-4.196 6.941-5.304 2.852-1.168 5.958-2.16 8.571-3.266-1.106 2.16-2.926 3.602-4.082 5.714 2.664-1.417 3.961-4.202 5.715-6.53m-14.3-16.74c-1.231 2.989-5.165 6.809-7.348 10.2-3.297-11.66 5.023-16.31 8.168-25.72 1.183 4.48-1.789 12.6-.82 15.51m28.17-69.41c4.664 1.066 12.86 5.633 17.96 8.98-.726 3.086-2.945 4.68-3.676 7.758-13.75 17.01-27.7 35.98-41.64 51.44 1.258-5.972.08-11.36 1.633-17.15 1.074-4.012 4.812-8.274 6.941-12.25 6.75-12.62 13.02-25.2 20-37.56-.23-.586-.637-.9961-1.227-1.223m-60.42-9.797c5.246-2.273 16.98-1.836 22.45-1.226-1.297 2.281-4.164.6523-7.348 1.226 1.301.4766 4.293 1.402 5.715.4063 1.41.918-1.652.7578-.817 2.449 1.2 17.16 1.993 36.52 2.86 55.52.363 8.031 1.465 16.64.816 21.23-.918 6.464-7.715 11.47-8.574 17.15-4.391-5.138-7.457-11.6-11.43-17.15-.589-25.88-2.757-53.84-2.039-78.39 3.036-.09 5.602-.6562 8.981-.4062-2.137-1.812-6.867.7109-10.61-.8165m3.671 82.06c4.172 4.812 7.508 10.46 10.62 16.33-.649.852-1.332 1.664-1.633 2.859-3.246-2.742-5.844-6.136-8.574-9.39-.102-3.302.3-7.11-.411-9.802m10.21 27.76c.946-.913 3.844-.324 4.899 0-.988 1.172-3.914 1.032-4.899 0m.411 2.45c7.05-1.462 11.44 4.277 9.39 10.62-2.414 7.469-16.76 7.332-15.52-4.083.316-2.894 2.054-5.69 6.125-6.534m-11.84 12.66c.05 1.524-1.614 2.676-.817 3.676 1.114-.543 1.2-1.824.817-2.859 1.172 1.417 2.597 4.741 4.082 4.492.984 2.285 1.472 5.061 2.039 7.757-3.992.391-7.797 4.426-11.43 6.532.637-3.586 2.86-9.117 4.082-13.47h4.086c-1.625-1.793-4.558-.751-6.535-.407.125.556 1.023.336 1.633.407-1.278 4.711-3.223 8.753-4.082 13.88-2.375 1.434-4.762 2.858-6.942 4.492 2.047-8.438 8.297-16.2 11.84-24.5.535-.488.641-.156 1.227 0m-1.227-20.41c-1.234.616.34 1.788 0 2.855-4.183-.308-8.004-.976-11.84-1.632 3.008 1.893 8.301 1.5 12.25 2.449.36 1.547.305 3.508 1.223 4.492.84-.868-.687-2.828-.406-4.492 3.09 0 .828 3.936 2.039 4.082-1.918 1.21-4.516 1.746-6.531 2.858-5.864-4.885-10.32-11.18-15.92-16.33 7.308.45 14.6 4.454 22.05 6.126v2.86h-2.45c.754-.806.125-2.528-.41-3.266m0 14.29c-1.074-.968-2.461-1.62-2.855-3.265 1.551-.219 2.261-1.277 4.082-1.227-.278 1.492-1.274 2.266-2.449 2.86.269 1.223.871-.39 1.632 0 .05.731-.5.86-.41 1.632m-15.92 8.575c3.938-.679 8.711 1.348 12.66 2.039-2.68 2.352-7.411 1.364-11.43 1.633-8.008.543-19.28.909-27.76 1.633 4.383.3 11.34-.36 16.74-.406-20.6 13.83-41.93 26.94-62.87 40.42-.6913-1.06-1.898.788-3.266.406-2.676-5.078-4.602-10.91-6.941-16.33 22.56-11.33 47.71-20.06 70.63-31.03 4.086.136 7.235 1.203 11.43 1.225-2.231 1.31-4.492 2.587-6.531 4.083 3 .245 4.215-3.133 7.347-3.672m158.5-6.919c.144-9.358-.75-19.06-2.946-29.01-9.085-41.17-36.86-73.29-71.85-89-19.75-8.863-44.42-12.87-68.59-10.2-22.68 2.5-42.27 10.84-58.38 22.05-29.85 20.75-55.65 55.19-55.52 105.3.035 14.22 2.242 26.65 5.754 37.65 10.87 36.91 37.07 65.6 69.5 80.18 7.508 3.374 15.73 6.042 24.36 7.914.09 1.312 4.355 1.348 6.074 1.16 12.01 2.04 24.66 2.547 37.2 1.262 3.449-.08 7.281.218 9.395-1.203-.387.03-.797.07-1.231.101 19.64-3.308 36.8-11.01 51.18-20.99 29.86-20.73 55.69-55.16 55.59-105.3z"/>
 </g>
  <g id="wheel-banner" transform="translate(-4.64)">
   <path d="m145.5 88.1c.102-1.566-3.508-.7773-4.082-.4101-.887.7851 2.984.2617 4.082.4101"/>
   <path style="fill:#211e1e" d="m14.12 160.8 34.28-7.305 16.86 26.97.1524.06c12.95-34.5 46.24-59.06 85.27-59.06 38.68 0 71.73 24.13 84.92 58.16l.126-.09 16.86-26.98 34.28 7.305v-.444c-21.3-54.5-74.2-93.09-136.2-93.09-62.33 0-115.5 38.99-136.5 93.89"/>
   <path style="fill:#d1b58a" class="wheel-ribbon" d="m10.41 157.1 34.28-7.305 16.86 26.97.1524.06c12.95-34.5 46.24-59.06 85.27-59.06 38.68 0 71.74 24.13 84.92 58.16l.125-.09 16.86-26.98 34.28 7.304v-.445c-21.3-54.5-74.3-93.1-136.2-93.1-62.34 0-115.5 39-136.6 93.9"/>
   <path style="stroke:#fff;stroke-miterlimit:10;stroke-width:1.236;fill:none" d="m45.97 146.8.9921 1.586 14.2 22.72c14.84-33.7 48.7-56.01 85.82-56.01 38.14 1.759 70.58 23.13 85.42 55.11l14.22-22.76.993-1.586 1.828.391 29.53 6.293c-10.6-24.8-27.9-46-50.2-61.51-24.1-16.76-52.4-25.62-81.8-25.62-29.62 0-58.05 8.953-82.22 25.89-22.42 15.71-39.69 37.16-50.17 62.24l29.55-6.301z"/>
  </g>
 <g>
  <text id="wheel-programs" xml:space="preserve"><textPath xlink:href="#wheel-text-path" startOffset="50%">PROGRAMS</textPath></text>
 </g>
 <g>
  <text id="wheel-volunteer" xml:space="preserve" transform="matrix(.9995 -.03270 .03270 .9995 -3.712 4.687)"><textPath style="letter-spacing:-1.6px" xlink:href="#wheel-text-path" startOffset="50%">VOLUNTEER</textPath></text>
 </g>
 <g>
  <text id="wheel-bike-shop" xml:space="preserve"><textPath xlink:href="#wheel-text-path" startOffset="50%">BIKE SHOP</textPath></text>
 </g>
</svg>
